<?xml version="1.0" encoding="UTF-8"?>
<svg id="Layer_1" data-name="Layer 1" xmlns="http://www.w3.org/2000/svg" viewBox="0 0 128 128">
  <defs>
    <style>
      .cls-1 {
        fill: #ef8488;
      }
    </style>
  </defs>
  <rect class="cls-1" x="36.45" y="63.63" width="10.78" height="2.85" transform="translate(-33.75 48.65) rotate(-45.01)"/>
  <rect class="cls-1" x="84.74" y="59.66" width="2.85" height="10.78" transform="translate(-20.76 80.01) rotate(-45.01)"/>
  <rect class="cls-1" x="40.46" y="15.47" width="2.85" height="10.65" transform="translate(-2.43 35.71) rotate(-45.01)"/>
  <rect class="cls-1" x="80.79" y="19.37" width="10.65" height="2.85" transform="translate(10.53 67) rotate(-45.01)"/>
  <rect class="cls-1" x="62.6" y="6.3" width="2.8" height="10.68"/>
  <rect class="cls-1" x="27.38" y="41.5" width="10.51" height="2.8"/>
  <rect class="cls-1" x="90.11" y="41.5" width="10.51" height="2.8"/>
  <polygon class="cls-1" points="39.41 34.31 34 32.03 35.09 29.42 40.52 31.7 39.41 34.31"/>
  <polygon class="cls-1" points="92.97 56.46 87.44 54.18 88.58 51.58 93.99 53.81 92.97 56.46"/>
  <path class="cls-1" d="M52.77,19.52l-2.31-5.5c.96-.38,1.77-.67,2.61-1.11l2.29,5.51c-.9.34-1.58.57-2.59,1.1Z"/>
  <path class="cls-1" d="M75.25,19.52c-.9-.45-1.67-.76-2.61-1.1l2.31-5.53c.89.52,1.68.74,2.58,1.12l-2.28,5.5Z"/>
  <polygon class="cls-1" points="88.63 34.29 87.48 31.7 92.91 29.41 94.01 32.04 88.63 34.29"/>
  <polygon class="cls-1" points="40.55 54.19 35.04 56.46 34.01 53.8 39.44 51.6 40.55 54.19"/>
  <g>
    <path class="cls-1" d="M47.74,121.7l1.32-13.84c.07-.72-.02-1.33.35-2.02l28.18-12.01,2.66,27.86h-32.52Z"/>
    <g>
      <polygon class="cls-1" points="76.4 81.09 50.56 92.1 51.81 78.93 75.21 68.94 76.4 81.09"/>
      <path class="cls-1" d="M74.15,57.08l-20.98,8.95c-.16-1.1.05-1.79.13-2.64l.73-8.09c.05-.55.43-1.49.01-1.91-1.14-.58-2.21-1.55-1.93-2.31.08-.22.31-.48.68-.48h1.58s0-13.11,0-13.11h-1.58c-.26-.01-.44-.16-.54-.27-.19-.2-.18-.48-.1-.71.31-.96,1.05-1.27,1.81-1.75,4.36-2.78,5.93-7.33,8.3-9.01,1.07-.76,2.44-.77,3.52,0,2.47,1.77,4.31,6.95,9.07,9.46.78.41,1.26,1.42,1,1.9-.09.16-.31.36-.62.36h-1.58s0,13.11,0,13.11h1.58c.48.02.77.44.69.85-.21,1.08-1.13,1.44-1.95,1.94-.39.4-.03,1.3.01,1.76.06.68-.05,1.17.19,1.94ZM69.96,37.47h-11.91v13.13h11.91v-13.13Z"/>
    </g>
  </g>
</svg>