<?xml version="1.0" encoding="UTF-8"?>
<svg id="Layer_1" data-name="Layer 1" xmlns="http://www.w3.org/2000/svg" viewBox="0 0 128 128">
  <defs>
    <style>
      .cls-1 {
        fill: #f18388;
      }
    </style>
  </defs>
  <path class="cls-1" d="M72.3,87.44l-16.52.02c-.95,0-1.79.84-1.8,1.8v17.88s-20.18-.01-20.18-.01c-1.05-.2-1.7-.74-1.85-1.83v-40.69s32.06-28.35,32.06-28.35l32.05,28.34v40.85c-.27,1.02-.87,1.48-1.87,1.68h-20.17s-.01-17.86-.01-17.86c0-.96-.74-1.64-1.71-1.82Z"/>
  <path class="cls-1" d="M66.17,32.47c-.85-.72-1.43-1.26-2.12-1.95l-40.74,36.06-4.97-5.55L63.26,21.27c.28-.22.43-.38.66-.4.31-.03.5.14.82.4l44.92,39.76-4.95,5.56-38.54-34.12Z"/>
  <path class="cls-1" d="M39.8,36.95l-2.05,1.89-1.79,1.61c-1.25,1.12-2.56,2.45-3.99,3.5l-.02-17.34h11.64s.02,6.82.02,6.82c-.62.76-1.31,1.43-2.14,1.97-.43.67-1.1,1.06-1.66,1.57Z"/>
</svg>