<?xml version="1.0" encoding="UTF-8"?>
<svg id="Layer_1" data-name="Layer 1" xmlns="http://www.w3.org/2000/svg" viewBox="0 0 128 128">
  <defs>
    <style>
      .cls-1 {
        fill: #f18388;
      }
    </style>
  </defs>
  <path class="cls-1" d="M94.26,103.25c-.45,5.08-5.33,6.15-9.93,6.44l-3.05.19-16.47-.02-29.77-.17c-2.64-.02-5.1-.38-7.54-1.16-4.81-1.55-5.12-6.05-4.64-10.82l1.97-19.48,1.61-14.89,1.83-15.16c.19-1.56.41-3.02.81-4.49.59-2.18,2.26-3.5,4.53-3.51l6.78-.06.5-4.86c.5-4.82,1.61-8.86,5.21-12.33,2.84-2.75,6.61-4.18,10.51-4.7,1.56-.21,3.15-.11,4.69,0,1.8.13,3.39.79,4.97,1.57,6.58,3.22,9.13,9.44,9.74,16.49l.06,4.15c.93.16,1.77-.12,2.66-.11l3.46.05c2.17.03,5.76.74,6.18,2.52.62,2.63.94,5.26,1.26,7.95l.55,4.6,1.71,16.74.22,2.46,1.65,18.28.19,2.3.18,2.12.16,1.97-.02,3.91ZM67.92,40.15c.84,0,1.62.26,2.5.18.52-.05,1.02.29,1.6.13.82-6.9-1.03-13.71-7.38-17.08-5.14-2.73-11.38-1.68-15.61,2.31-2.69,2.54-4.06,6.01-4.45,9.69l-.07,4.93,10.73-.1,12.69-.07ZM46.61,46.95c-.52-.41-1.7-.37-2.02.07l-.36,2.39c-.1.67-.58,1.12-1.06,1.19-1.3.18-2.56-1.17-2.56-2.31v-2.28c-.67.2-1.21.47-1.78.85-.91.61-1.29,1.76-.83,2.84.84,2,2.73,3.44,4.9,3.74,1.34.19,2.58-.45,3.25-1.6.77-1.33,1.55-4.03.47-4.89ZM75.93,46.14l-.12,3.5c-.03.81-1.12,1.17-1.78,1.17-.59,0-1.73-.25-1.76-.99l-.16-3.87c-.98-.05-1.45.65-2.02,1.13-.77.65-1.16,1.46-.76,2.48.78,1.96,1.99,4.2,4.14,4.14,2.37-.07,4.55-2.01,5.07-4.3.4-1.75-.82-2.98-2.61-3.25Z"/>
  <path class="cls-1" d="M99.22,106.08c-.99.11-1.93-.44-1.83-1.42l.17-1.6c.14-1.37.1-2.57,0-3.91l-.18-2.69-2.43-24.51-2.5-26-.06-3.35c0-.43.32-.82.54-1,1.32-1.11,4.31,1.4,4.88,3.52l1.39,8.23,2.39,17.09,3.62,27.24c.34,2.58-.22,4.84-2.23,6.57-1.02.88-2.22,1.64-3.75,1.81Z"/>
</svg>