<svg xmlns="http://www.w3.org/2000/svg" xmlns:xlink="http://www.w3.org/1999/xlink" width="940" zoomAndPan="magnify" viewBox="0 0 705 591.000005" height="788" preserveAspectRatio="xMidYMid meet" version="1.0"><defs><g/><clipPath id="60e6d16f45"><path d="M 0.59375 0 L 704.402344 0 L 704.402344 590 L 0.59375 590 Z M 0.59375 0 " clip-rule="nonzero"/></clipPath><clipPath id="930b478579"><path d="M 323 367 L 382 367 L 382 417.367188 L 323 417.367188 Z M 323 367 " clip-rule="nonzero"/></clipPath><clipPath id="c5591580a2"><path d="M 286.867188 273 L 306 273 L 306 278 L 286.867188 278 Z M 286.867188 273 " clip-rule="nonzero"/></clipPath><clipPath id="bab7340e77"><path d="M 399 273 L 417.894531 273 L 417.894531 278 L 399 278 Z M 399 273 " clip-rule="nonzero"/></clipPath><clipPath id="cd6e2c00ff"><rect x="0" width="565" y="0" height="79"/></clipPath><clipPath id="e9239e5c0e"><rect x="0" width="556" y="0" height="34"/></clipPath></defs><g clip-path="url(#60e6d16f45)"><path fill="#ffffff" d="M 0.59375 0 L 704.40625 0 L 704.40625 590 L 0.59375 590 Z M 0.59375 0 " fill-opacity="1" fill-rule="nonzero"/><path fill="#1b2d4c" d="M 0.59375 0 L 704.40625 0 L 704.40625 590 L 0.59375 590 Z M 0.59375 0 " fill-opacity="1" fill-rule="nonzero"/></g><path fill="#ffffff" d="M 332.046875 265.644531 L 335.453125 265.644531 L 335.453125 289.582031 L 332.046875 289.582031 C 330.3125 290.453125 332.089844 292.707031 333.597656 293.523438 C 334.136719 293.816406 334.65625 294.128906 335.152344 294.457031 L 333.019531 316.890625 L 370.457031 300.902344 L 369.84375 294.457031 C 370.34375 294.128906 370.859375 293.8125 371.398438 293.523438 C 372.90625 292.707031 374.6875 290.453125 372.953125 289.582031 L 369.546875 289.582031 L 369.546875 265.644531 L 372.953125 265.644531 C 374.6875 264.769531 372.90625 262.519531 371.398438 261.703125 C 365.566406 258.542969 362.246094 253.113281 358.511719 248 C 356.546875 245.308594 354.511719 243.917969 352.5 243.835938 C 350.484375 243.917969 348.453125 245.308594 346.484375 248 C 342.75 253.113281 339.429688 258.542969 333.597656 261.703125 C 332.089844 262.519531 330.3125 264.769531 332.046875 265.644531 Z M 363.457031 265.644531 L 363.457031 289.582031 L 341.542969 289.582031 L 341.542969 265.644531 Z M 363.457031 265.644531 " fill-opacity="1" fill-rule="nonzero"/><g clip-path="url(#930b478579)"><path fill="#ffffff" d="M 376.765625 367.28125 L 326.179688 388.882812 L 323.773438 414.167969 L 323.5 417.066406 L 381.496094 417.066406 Z M 376.765625 367.28125 " fill-opacity="1" fill-rule="nonzero"/></g><path fill="#ffffff" d="M 328.582031 363.601562 L 374.550781 343.96875 L 372.660156 324.089844 L 372.515625 322.570312 L 330.785156 340.390625 L 330.628906 342.039062 Z M 328.582031 363.601562 " fill-opacity="1" fill-rule="nonzero"/><path fill="#ffffff" d="M 350.164062 210.003906 L 354.832031 210.003906 L 354.832031 228.78125 L 350.164062 228.78125 Z M 350.164062 210.003906 " fill-opacity="1" fill-rule="nonzero"/><path fill="#ffffff" d="M 332.820312 222.039062 L 336.722656 231.460938 L 332.414062 233.246094 L 328.507812 223.824219 Z M 332.820312 222.039062 " fill-opacity="1" fill-rule="nonzero"/><path fill="#ffffff" d="M 300.679688 251.652344 L 310.101562 255.554688 L 308.316406 259.867188 L 298.894531 255.960938 Z M 300.679688 251.652344 " fill-opacity="1" fill-rule="nonzero"/><path fill="#ffffff" d="M 298.898438 295.316406 L 308.320312 291.414062 L 310.105469 295.722656 L 300.683594 299.628906 Z M 298.898438 295.316406 " fill-opacity="1" fill-rule="nonzero"/><path fill="#ffffff" d="M 404.320312 299.617188 L 394.894531 295.710938 L 396.679688 291.402344 L 406.105469 295.304688 Z M 404.320312 299.617188 " fill-opacity="1" fill-rule="nonzero"/><path fill="#ffffff" d="M 406.097656 255.960938 L 396.671875 259.863281 L 394.886719 255.554688 L 404.3125 251.652344 Z M 406.097656 255.960938 " fill-opacity="1" fill-rule="nonzero"/><path fill="#ffffff" d="M 372.179688 222.039062 L 376.488281 223.824219 L 372.585938 233.246094 L 368.277344 231.460938 Z M 372.179688 222.039062 " fill-opacity="1" fill-rule="nonzero"/><path fill="#ffffff" d="M 317.71875 244.15625 L 304.4375 230.878906 L 307.738281 227.582031 L 321.015625 240.859375 Z M 317.71875 244.15625 " fill-opacity="1" fill-rule="nonzero"/><g clip-path="url(#c5591580a2)"><path fill="#ffffff" d="M 286.867188 273.304688 L 305.644531 273.304688 L 305.644531 277.96875 L 286.867188 277.96875 Z M 286.867188 273.304688 " fill-opacity="1" fill-rule="nonzero"/></g><path fill="#ffffff" d="M 307.734375 323.695312 L 304.4375 320.398438 L 317.714844 307.121094 L 321.015625 310.417969 Z M 307.734375 323.695312 " fill-opacity="1" fill-rule="nonzero"/><path fill="#ffffff" d="M 397.261719 323.699219 L 383.984375 310.417969 L 387.28125 307.121094 L 400.5625 320.398438 Z M 397.261719 323.699219 " fill-opacity="1" fill-rule="nonzero"/><g clip-path="url(#bab7340e77)"><path fill="#ffffff" d="M 399.351562 273.304688 L 418.128906 273.304688 L 418.128906 277.96875 L 399.351562 277.96875 Z M 399.351562 273.304688 " fill-opacity="1" fill-rule="nonzero"/></g><path fill="#ffffff" d="M 397.253906 227.578125 L 400.550781 230.878906 L 387.273438 244.15625 L 383.976562 240.855469 Z M 397.253906 227.578125 " fill-opacity="1" fill-rule="nonzero"/><g transform="matrix(1, 0, 0, 1, 70, 104)"><g clip-path="url(#cd6e2c00ff)"><g fill="#f28388" fill-opacity="1"><g transform="translate(0.642843, 61.917186)"><g><path d="M 3.109375 0 L 3.109375 -3.921875 L 9.296875 -3.921875 L 9.296875 -44.421875 L 3.109375 -44.421875 L 3.109375 -48.34375 L 30.625 -48.34375 C 36 -48.34375 40.273438 -47.0625 43.453125 -44.5 C 46.628906 -41.945312 48.21875 -38.519531 48.21875 -34.21875 C 48.21875 -29.90625 46.625 -26.457031 43.4375 -23.875 C 40.25 -21.300781 35.976562 -20.015625 30.625 -20.015625 L 21.765625 -20.015625 L 21.765625 -3.921875 L 29.5625 -3.921875 L 29.5625 0 Z M 21.765625 -23.921875 L 25.390625 -23.921875 C 28.191406 -23.921875 30.425781 -24.851562 32.09375 -26.71875 C 33.769531 -28.59375 34.609375 -31.09375 34.609375 -34.21875 C 34.609375 -37.332031 33.773438 -39.8125 32.109375 -41.65625 C 30.453125 -43.5 28.210938 -44.421875 25.390625 -44.421875 L 21.765625 -44.421875 Z M 21.765625 -23.921875 "/></g></g></g><g fill="#f28388" fill-opacity="1"><g transform="translate(50.496327, 61.917186)"><g><path d="M 28.84375 -2.984375 C 32.96875 -2.984375 36.035156 -4.71875 38.046875 -8.1875 C 40.054688 -11.664062 41.0625 -16.976562 41.0625 -24.125 C 41.0625 -31.289062 40.054688 -36.609375 38.046875 -40.078125 C 36.035156 -43.554688 32.96875 -45.296875 28.84375 -45.296875 C 24.75 -45.296875 21.691406 -43.539062 19.671875 -40.03125 C 17.648438 -36.53125 16.640625 -31.226562 16.640625 -24.125 C 16.640625 -17.039062 17.648438 -11.742188 19.671875 -8.234375 C 21.691406 -4.734375 24.75 -2.984375 28.84375 -2.984375 Z M 28.84375 0.9375 C 20.707031 0.9375 14.328125 -1.285156 9.703125 -5.734375 C 5.085938 -10.179688 2.78125 -16.3125 2.78125 -24.125 C 2.78125 -31.9375 5.09375 -38.070312 9.71875 -42.53125 C 14.351562 -46.988281 20.726562 -49.21875 28.84375 -49.21875 C 36.988281 -49.21875 43.367188 -46.992188 47.984375 -42.546875 C 52.609375 -38.097656 54.921875 -31.957031 54.921875 -24.125 C 54.921875 -16.3125 52.601562 -10.179688 47.96875 -5.734375 C 43.34375 -1.285156 36.96875 0.9375 28.84375 0.9375 Z M 28.84375 0.9375 "/></g></g></g><g fill="#f28388" fill-opacity="1"><g transform="translate(108.248675, 61.917186)"><g><path d="M 35.203125 -23.609375 C 37.117188 -23.328125 38.734375 -22.6875 40.046875 -21.6875 C 41.367188 -20.695312 42.515625 -19.265625 43.484375 -17.390625 L 50.546875 -3.921875 L 55.5 -3.921875 L 55.5 0 L 39.59375 0 L 31.890625 -14.609375 C 30.398438 -17.628906 29.128906 -19.550781 28.078125 -20.375 C 27.035156 -21.207031 25.585938 -21.625 23.734375 -21.625 L 21.765625 -21.625 L 21.765625 -3.921875 L 27.96875 -3.921875 L 27.96875 0 L 3.109375 0 L 3.109375 -3.921875 L 9.296875 -3.921875 L 9.296875 -44.421875 L 3.109375 -44.421875 L 3.109375 -48.34375 L 30.703125 -48.34375 C 36.304688 -48.34375 40.632812 -47.210938 43.6875 -44.953125 C 46.75 -42.703125 48.28125 -39.503906 48.28125 -35.359375 C 48.28125 -31.992188 47.191406 -29.332031 45.015625 -27.375 C 42.847656 -25.425781 39.578125 -24.171875 35.203125 -23.609375 Z M 21.765625 -25.515625 L 26 -25.515625 C 29.019531 -25.515625 31.34375 -26.332031 32.96875 -27.96875 C 34.601562 -29.613281 35.421875 -31.957031 35.421875 -35 C 35.421875 -38.039062 34.601562 -40.367188 32.96875 -41.984375 C 31.34375 -43.609375 29.019531 -44.421875 26 -44.421875 L 21.765625 -44.421875 Z M 21.765625 -25.515625 "/></g></g></g><g fill="#f28388" fill-opacity="1"><g transform="translate(162.180901, 61.917186)"><g><path d="M 12.015625 0 L 12.015625 -3.921875 L 18.421875 -3.921875 L 18.421875 -43.90625 L 5.1875 -43.90625 L 5.1875 -36.265625 L 0.75 -36.265625 L 0.75 -48.34375 L 48.671875 -48.34375 L 48.671875 -36.265625 L 44.296875 -36.265625 L 44.296875 -43.90625 L 30.953125 -43.90625 L 30.953125 -3.921875 L 37.390625 -3.921875 L 37.390625 0 Z M 12.015625 0 "/></g></g></g><g fill="#f28388" fill-opacity="1"><g transform="translate(211.516428, 61.917186)"><g/></g></g><g fill="#f28388" fill-opacity="1"><g transform="translate(234.597944, 61.917186)"><g><path d="M -0.515625 0 L -0.515625 -3.921875 L 3.4375 -3.921875 L 21.625 -48.34375 L 29.375 -48.34375 L 47.59375 -3.921875 L 52.1875 -3.921875 L 52.1875 0 L 29.5625 0 L 29.5625 -3.921875 L 34.296875 -3.921875 L 30.3125 -13.796875 L 12.140625 -13.796875 L 8.09375 -3.921875 L 13.859375 -3.921875 L 13.859375 0 Z M 13.734375 -17.71875 L 28.71875 -17.71875 L 21.265625 -36.203125 Z M 13.734375 -17.71875 "/></g></g></g><g fill="#f28388" fill-opacity="1"><g transform="translate(286.037675, 61.917186)"><g/></g></g><g fill="#f28388" fill-opacity="1"><g transform="translate(309.119209, 61.917186)"><g><path d="M 3.109375 0 L 3.109375 -3.921875 L 9.296875 -3.921875 L 9.296875 -44.421875 L 3.109375 -44.421875 L 3.109375 -48.34375 L 27.96875 -48.34375 L 27.96875 -44.421875 L 21.765625 -44.421875 L 21.765625 -4.4375 L 40.796875 -4.4375 L 40.796875 -12.078125 L 45.171875 -12.078125 L 45.171875 0 Z M 3.109375 0 "/></g></g></g><g fill="#f28388" fill-opacity="1"><g transform="translate(355.735453, 61.917186)"><g><path d="M 28.84375 -2.984375 C 32.96875 -2.984375 36.035156 -4.71875 38.046875 -8.1875 C 40.054688 -11.664062 41.0625 -16.976562 41.0625 -24.125 C 41.0625 -31.289062 40.054688 -36.609375 38.046875 -40.078125 C 36.035156 -43.554688 32.96875 -45.296875 28.84375 -45.296875 C 24.75 -45.296875 21.691406 -43.539062 19.671875 -40.03125 C 17.648438 -36.53125 16.640625 -31.226562 16.640625 -24.125 C 16.640625 -17.039062 17.648438 -11.742188 19.671875 -8.234375 C 21.691406 -4.734375 24.75 -2.984375 28.84375 -2.984375 Z M 28.84375 0.9375 C 20.707031 0.9375 14.328125 -1.285156 9.703125 -5.734375 C 5.085938 -10.179688 2.78125 -16.3125 2.78125 -24.125 C 2.78125 -31.9375 5.09375 -38.070312 9.71875 -42.53125 C 14.351562 -46.988281 20.726562 -49.21875 28.84375 -49.21875 C 36.988281 -49.21875 43.367188 -46.992188 47.984375 -42.546875 C 52.609375 -38.097656 54.921875 -31.957031 54.921875 -24.125 C 54.921875 -16.3125 52.601562 -10.179688 47.96875 -5.734375 C 43.34375 -1.285156 36.96875 0.9375 28.84375 0.9375 Z M 28.84375 0.9375 "/></g></g></g><g fill="#f28388" fill-opacity="1"><g transform="translate(413.487802, 61.917186)"><g><path d="M 49.40625 -13.796875 C 48.132812 -8.804688 45.847656 -5.101562 42.546875 -2.6875 C 39.242188 -0.269531 34.804688 0.9375 29.234375 0.9375 C 21.078125 0.9375 14.628906 -1.3125 9.890625 -5.8125 C 5.148438 -10.3125 2.78125 -16.414062 2.78125 -24.125 C 2.78125 -31.851562 5.148438 -37.96875 9.890625 -42.46875 C 14.628906 -46.96875 21.078125 -49.21875 29.234375 -49.21875 C 32.109375 -49.21875 35.097656 -48.867188 38.203125 -48.171875 C 41.316406 -47.484375 44.609375 -46.441406 48.078125 -45.046875 L 48.078125 -33.15625 L 43.96875 -33.15625 C 43.125 -37.21875 41.585938 -40.253906 39.359375 -42.265625 C 37.140625 -44.285156 34.207031 -45.296875 30.5625 -45.296875 C 25.851562 -45.296875 22.351562 -43.5625 20.0625 -40.09375 C 17.78125 -36.632812 16.640625 -31.3125 16.640625 -24.125 C 16.640625 -16.9375 17.78125 -11.613281 20.0625 -8.15625 C 22.351562 -4.707031 25.875 -2.984375 30.625 -2.984375 C 33.84375 -2.984375 36.472656 -3.878906 38.515625 -5.671875 C 40.554688 -7.460938 42.039062 -10.171875 42.96875 -13.796875 Z M 49.40625 -13.796875 "/></g></g></g><g fill="#f28388" fill-opacity="1"><g transform="translate(466.254765, 61.917186)"><g><path d="M -0.515625 0 L -0.515625 -3.921875 L 3.4375 -3.921875 L 21.625 -48.34375 L 29.375 -48.34375 L 47.59375 -3.921875 L 52.1875 -3.921875 L 52.1875 0 L 29.5625 0 L 29.5625 -3.921875 L 34.296875 -3.921875 L 30.3125 -13.796875 L 12.140625 -13.796875 L 8.09375 -3.921875 L 13.859375 -3.921875 L 13.859375 0 Z M 13.734375 -17.71875 L 28.71875 -17.71875 L 21.265625 -36.203125 Z M 13.734375 -17.71875 "/></g></g></g><g fill="#f28388" fill-opacity="1"><g transform="translate(517.694515, 61.917186)"><g><path d="M 3.109375 0 L 3.109375 -3.921875 L 9.296875 -3.921875 L 9.296875 -44.421875 L 3.109375 -44.421875 L 3.109375 -48.34375 L 27.96875 -48.34375 L 27.96875 -44.421875 L 21.765625 -44.421875 L 21.765625 -4.4375 L 40.796875 -4.4375 L 40.796875 -12.078125 L 45.171875 -12.078125 L 45.171875 0 Z M 3.109375 0 "/></g></g></g></g></g><g transform="matrix(1, 0, 0, 1, 75, 452)"><g clip-path="url(#e9239e5c0e)"><g fill="#70b6ff" fill-opacity="1"><g transform="translate(1.072288, 25.774964)"><g><path d="M 9.328125 -1.671875 L 11.25 -1.671875 C 13.414062 -1.671875 15 -2.363281 16 -3.75 C 17 -5.144531 17.5 -7.351562 17.5 -10.375 C 17.5 -13.375 17 -15.566406 16 -16.953125 C 15.007812 -18.335938 13.425781 -19.03125 11.25 -19.03125 L 9.328125 -19.03125 Z M 1.328125 0 L 1.328125 -1.671875 L 3.984375 -1.671875 L 3.984375 -19.03125 L 1.328125 -19.03125 L 1.328125 -20.703125 L 11.953125 -20.703125 C 15.671875 -20.703125 18.515625 -19.8125 20.484375 -18.03125 C 22.453125 -16.257812 23.4375 -13.707031 23.4375 -10.375 C 23.4375 -7.019531 22.445312 -4.453125 20.46875 -2.671875 C 18.5 -0.890625 15.660156 0 11.953125 0 Z M 1.328125 0 "/></g></g></g><g fill="#70b6ff" fill-opacity="1"><g transform="translate(25.694644, 25.774964)"><g><path d="M 2.609375 -18.921875 C 2.609375 -19.671875 2.863281 -20.300781 3.375 -20.8125 C 3.894531 -21.320312 4.53125 -21.578125 5.28125 -21.578125 C 6.007812 -21.578125 6.628906 -21.320312 7.140625 -20.8125 C 7.660156 -20.300781 7.921875 -19.671875 7.921875 -18.921875 C 7.921875 -18.191406 7.660156 -17.566406 7.140625 -17.046875 C 6.628906 -16.535156 6.007812 -16.28125 5.28125 -16.28125 C 4.53125 -16.28125 3.894531 -16.535156 3.375 -17.046875 C 2.863281 -17.554688 2.609375 -18.179688 2.609375 -18.921875 Z M 7.96875 -1.671875 L 10.078125 -1.671875 L 10.078125 0 L 0.96875 0 L 0.96875 -1.671875 L 3.0625 -1.671875 L 3.0625 -13.0625 L 0.96875 -13.0625 L 0.96875 -14.75 L 7.96875 -14.75 Z M 7.96875 -1.671875 "/></g></g></g><g fill="#70b6ff" fill-opacity="1"><g transform="translate(36.480788, 25.774964)"><g><path d="M 1.328125 -0.4375 L 1.328125 -4.546875 L 2.90625 -4.546875 C 3.03125 -3.453125 3.4375 -2.613281 4.125 -2.03125 C 4.820312 -1.457031 5.769531 -1.171875 6.96875 -1.171875 C 7.957031 -1.171875 8.71875 -1.34375 9.25 -1.6875 C 9.789062 -2.03125 10.0625 -2.523438 10.0625 -3.171875 C 10.0625 -3.765625 9.890625 -4.222656 9.546875 -4.546875 C 9.210938 -4.867188 8.5625 -5.148438 7.59375 -5.390625 L 5.5625 -5.90625 C 4.03125 -6.289062 2.921875 -6.832031 2.234375 -7.53125 C 1.554688 -8.238281 1.21875 -9.195312 1.21875 -10.40625 C 1.21875 -12 1.769531 -13.1875 2.875 -13.96875 C 3.988281 -14.75 5.703125 -15.140625 8.015625 -15.140625 C 8.890625 -15.140625 9.816406 -15.066406 10.796875 -14.921875 C 11.785156 -14.785156 12.875 -14.566406 14.0625 -14.265625 L 14.0625 -10.546875 L 12.5 -10.546875 C 12.414062 -11.546875 12.054688 -12.300781 11.421875 -12.8125 C 10.785156 -13.320312 9.878906 -13.578125 8.703125 -13.578125 C 7.703125 -13.578125 6.941406 -13.414062 6.421875 -13.09375 C 5.910156 -12.78125 5.65625 -12.316406 5.65625 -11.703125 C 5.65625 -11.203125 5.800781 -10.804688 6.09375 -10.515625 C 6.394531 -10.234375 6.929688 -10 7.703125 -9.8125 L 9.703125 -9.296875 C 11.640625 -8.804688 12.976562 -8.195312 13.71875 -7.46875 C 14.457031 -6.75 14.828125 -5.75 14.828125 -4.46875 C 14.828125 -2.800781 14.234375 -1.570312 13.046875 -0.78125 C 11.859375 0.0078125 10.007812 0.40625 7.5 0.40625 C 6.582031 0.40625 5.609375 0.332031 4.578125 0.1875 C 3.554688 0.0507812 2.472656 -0.15625 1.328125 -0.4375 Z M 1.328125 -0.4375 "/></g></g></g><g fill="#70b6ff" fill-opacity="1"><g transform="translate(52.465917, 25.774964)"><g><path d="M 16.015625 -4.609375 C 15.671875 -2.921875 14.953125 -1.660156 13.859375 -0.828125 C 12.773438 -0.00390625 11.300781 0.40625 9.4375 0.40625 C 6.8125 0.40625 4.773438 -0.269531 3.328125 -1.625 C 1.890625 -2.988281 1.171875 -4.90625 1.171875 -7.375 C 1.171875 -9.820312 1.878906 -11.726562 3.296875 -13.09375 C 4.722656 -14.457031 6.703125 -15.140625 9.234375 -15.140625 C 10.265625 -15.140625 11.300781 -15.039062 12.34375 -14.84375 C 13.382812 -14.65625 14.445312 -14.367188 15.53125 -13.984375 L 15.53125 -9.890625 L 13.984375 -9.890625 C 13.835938 -11.140625 13.472656 -12.066406 12.890625 -12.671875 C 12.304688 -13.273438 11.488281 -13.578125 10.4375 -13.578125 C 9.0625 -13.578125 8.082031 -13.113281 7.5 -12.1875 C 6.925781 -11.269531 6.640625 -9.664062 6.640625 -7.375 C 6.640625 -5.144531 6.921875 -3.550781 7.484375 -2.59375 C 8.054688 -1.644531 8.976562 -1.171875 10.25 -1.171875 C 11.238281 -1.171875 12.03125 -1.460938 12.625 -2.046875 C 13.226562 -2.640625 13.59375 -3.492188 13.71875 -4.609375 Z M 16.015625 -4.609375 "/></g></g></g><g fill="#70b6ff" fill-opacity="1"><g transform="translate(69.754256, 25.774964)"><g><path d="M 9.484375 -1.171875 C 10.523438 -1.171875 11.253906 -1.613281 11.671875 -2.5 C 12.085938 -3.382812 12.296875 -5.007812 12.296875 -7.375 C 12.296875 -9.75 12.085938 -11.375 11.671875 -12.25 C 11.253906 -13.132812 10.523438 -13.578125 9.484375 -13.578125 C 8.441406 -13.578125 7.707031 -13.128906 7.28125 -12.234375 C 6.851562 -11.347656 6.640625 -9.726562 6.640625 -7.375 C 6.640625 -5.03125 6.851562 -3.410156 7.28125 -2.515625 C 7.707031 -1.617188 8.441406 -1.171875 9.484375 -1.171875 Z M 9.484375 0.40625 C 6.890625 0.40625 4.851562 -0.285156 3.375 -1.671875 C 1.90625 -3.054688 1.171875 -4.957031 1.171875 -7.375 C 1.171875 -9.8125 1.90625 -11.710938 3.375 -13.078125 C 4.851562 -14.453125 6.890625 -15.140625 9.484375 -15.140625 C 12.097656 -15.140625 14.140625 -14.453125 15.609375 -13.078125 C 17.078125 -11.710938 17.8125 -9.8125 17.8125 -7.375 C 17.8125 -4.957031 17.070312 -3.054688 15.59375 -1.671875 C 14.125 -0.285156 12.085938 0.40625 9.484375 0.40625 Z M 9.484375 0.40625 "/></g></g></g><g fill="#70b6ff" fill-opacity="1"><g transform="translate(88.692396, 25.774964)"><g><path d="M 6.34375 0 L 1.109375 -13.0625 L -0.515625 -13.0625 L -0.515625 -14.75 L 7.953125 -14.75 L 7.953125 -13.0625 L 6.15625 -13.0625 L 9.890625 -3.75 L 13.609375 -13.0625 L 11.671875 -13.0625 L 11.671875 -14.75 L 17.21875 -14.75 L 17.21875 -13.0625 L 15.5 -13.0625 L 10.28125 0 Z M 6.34375 0 "/></g></g></g><g fill="#70b6ff" fill-opacity="1"><g transform="translate(105.190483, 25.774964)"><g><path d="M 11.390625 -8.328125 C 11.390625 -10.265625 11.207031 -11.625 10.84375 -12.40625 C 10.488281 -13.1875 9.875 -13.578125 9 -13.578125 C 8.15625 -13.578125 7.550781 -13.191406 7.1875 -12.421875 C 6.820312 -11.660156 6.640625 -10.378906 6.640625 -8.578125 L 6.640625 -8.328125 Z M 16.78125 -6.671875 L 6.640625 -6.671875 L 6.640625 -6.5625 C 6.640625 -4.65625 6.925781 -3.28125 7.5 -2.4375 C 8.070312 -1.59375 9 -1.171875 10.28125 -1.171875 C 11.34375 -1.171875 12.203125 -1.453125 12.859375 -2.015625 C 13.515625 -2.578125 13.9375 -3.394531 14.125 -4.46875 L 16.421875 -4.46875 C 16.023438 -2.789062 15.234375 -1.554688 14.046875 -0.765625 C 12.867188 0.015625 11.210938 0.40625 9.078125 0.40625 C 6.523438 0.40625 4.566406 -0.265625 3.203125 -1.609375 C 1.847656 -2.960938 1.171875 -4.882812 1.171875 -7.375 C 1.171875 -9.820312 1.867188 -11.726562 3.265625 -13.09375 C 4.660156 -14.457031 6.597656 -15.140625 9.078125 -15.140625 C 11.523438 -15.140625 13.398438 -14.421875 14.703125 -12.984375 C 16.003906 -11.546875 16.695312 -9.441406 16.78125 -6.671875 Z M 16.78125 -6.671875 "/></g></g></g><g fill="#70b6ff" fill-opacity="1"><g transform="translate(123.255202, 25.774964)"><g><path d="M 15.25 -14.90625 L 15.25 -10.515625 L 13.6875 -10.515625 C 13.632812 -11.296875 13.421875 -11.878906 13.046875 -12.265625 C 12.679688 -12.648438 12.144531 -12.84375 11.4375 -12.84375 C 10.363281 -12.84375 9.515625 -12.367188 8.890625 -11.421875 C 8.273438 -10.484375 7.96875 -9.175781 7.96875 -7.5 L 7.96875 -1.671875 L 10.65625 -1.671875 L 10.65625 0 L 0.96875 0 L 0.96875 -1.671875 L 3.0625 -1.671875 L 3.0625 -13.0625 L 0.8125 -13.0625 L 0.8125 -14.75 L 7.96875 -14.75 L 7.96875 -12.125 C 8.457031 -13.144531 9.09375 -13.898438 9.875 -14.390625 C 10.664062 -14.890625 11.632812 -15.140625 12.78125 -15.140625 C 13.070312 -15.140625 13.421875 -15.117188 13.828125 -15.078125 C 14.242188 -15.035156 14.71875 -14.976562 15.25 -14.90625 Z M 15.25 -14.90625 "/></g></g></g><g fill="#70b6ff" fill-opacity="1"><g transform="translate(138.214399, 25.774964)"><g/></g></g><g fill="#ffffff" fill-opacity="1"><g transform="translate(148.107684, 25.774964)"><g><path d="M -0.65625 0 L -0.34375 -1.671875 L 2.296875 -1.671875 L 5.6875 -19.03125 L 3.046875 -19.03125 L 3.359375 -20.703125 L 15.140625 -20.703125 C 17.453125 -20.703125 19.179688 -20.15625 20.328125 -19.0625 C 21.472656 -17.96875 21.863281 -16.5 21.5 -14.65625 C 21.132812 -12.8125 20.164062 -11.335938 18.59375 -10.234375 C 17.019531 -9.128906 15.085938 -8.578125 12.796875 -8.578125 L 8.984375 -8.578125 L 7.640625 -1.671875 L 10.984375 -1.671875 L 10.671875 0 Z M 9.328125 -10.25 L 10.875 -10.25 C 12.070312 -10.25 13.101562 -10.648438 13.96875 -11.453125 C 14.84375 -12.253906 15.410156 -13.320312 15.671875 -14.65625 C 15.929688 -15.988281 15.785156 -17.050781 15.234375 -17.84375 C 14.679688 -18.632812 13.796875 -19.03125 12.578125 -19.03125 L 11.03125 -19.03125 Z M 9.328125 -10.25 "/></g></g></g><g fill="#ffffff" fill-opacity="1"><g transform="translate(168.695367, 25.774964)"><g><path d="M 8.28125 -1.171875 C 9.3125 -1.171875 10.125 -1.613281 10.71875 -2.5 C 11.3125 -3.382812 11.835938 -5.007812 12.296875 -7.375 C 12.609375 -8.914062 12.765625 -10.144531 12.765625 -11.0625 C 12.765625 -11.550781 12.71875 -11.953125 12.625 -12.265625 C 12.382812 -13.140625 11.738281 -13.578125 10.6875 -13.578125 C 9.644531 -13.578125 8.820312 -13.128906 8.21875 -12.234375 C 7.625 -11.347656 7.097656 -9.726562 6.640625 -7.375 C 6.347656 -5.863281 6.203125 -4.65625 6.203125 -3.75 C 6.203125 -3.238281 6.25 -2.828125 6.34375 -2.515625 C 6.59375 -1.617188 7.238281 -1.171875 8.28125 -1.171875 Z M 14.484375 -1.671875 C 12.742188 -0.285156 10.570312 0.40625 7.96875 0.40625 C 5.375 0.40625 3.476562 -0.285156 2.28125 -1.671875 C 1.40625 -2.660156 0.96875 -3.925781 0.96875 -5.46875 C 0.96875 -6.0625 1.035156 -6.695312 1.171875 -7.375 C 1.640625 -9.8125 2.742188 -11.710938 4.484375 -13.078125 C 6.234375 -14.453125 8.40625 -15.140625 11 -15.140625 C 13.601562 -15.140625 15.507812 -14.457031 16.71875 -13.09375 C 17.582031 -12.101562 18.015625 -10.84375 18.015625 -9.3125 C 18.015625 -8.707031 17.945312 -8.0625 17.8125 -7.375 C 17.34375 -4.957031 16.234375 -3.054688 14.484375 -1.671875 Z M 14.484375 -1.671875 "/></g></g></g><g fill="#ffffff" fill-opacity="1"><g transform="translate(187.633507, 25.774964)"><g><path d="M 16.6875 -14.90625 L 15.828125 -10.515625 L 14.265625 -10.515625 C 14.285156 -10.710938 14.296875 -10.890625 14.296875 -11.046875 C 14.296875 -11.566406 14.1875 -11.972656 13.96875 -12.265625 C 13.675781 -12.648438 13.175781 -12.84375 12.46875 -12.84375 C 11.394531 -12.84375 10.457031 -12.367188 9.65625 -11.421875 C 8.851562 -10.484375 8.289062 -9.175781 7.96875 -7.5 L 6.5 0 L 1.59375 0 L 4.140625 -13.0625 L 1.890625 -13.0625 L 2.203125 -14.75 L 9.359375 -14.75 L 8.859375 -12.125 C 9.535156 -13.144531 10.316406 -13.898438 11.203125 -14.390625 C 12.085938 -14.890625 13.109375 -15.140625 14.265625 -15.140625 C 14.546875 -15.140625 14.882812 -15.117188 15.28125 -15.078125 C 15.6875 -15.035156 16.15625 -14.976562 16.6875 -14.90625 Z M 16.6875 -14.90625 "/></g></g></g><g fill="#ffffff" fill-opacity="1"><g transform="translate(202.592704, 25.774964)"><g><path d="M 3.515625 -13.0625 L 1.390625 -13.0625 L 1.703125 -14.75 L 3.84375 -14.75 L 4.734375 -19.328125 L 9.640625 -19.328125 L 8.75 -14.75 L 12.84375 -14.75 L 12.53125 -13.0625 L 8.4375 -13.0625 L 6.671875 -4.03125 C 6.515625 -3.207031 6.4375 -2.585938 6.4375 -2.171875 C 6.4375 -1.921875 6.457031 -1.742188 6.5 -1.640625 C 6.65625 -1.328125 7 -1.171875 7.53125 -1.171875 C 8.125 -1.171875 8.597656 -1.367188 8.953125 -1.765625 C 9.316406 -2.160156 9.59375 -2.773438 9.78125 -3.609375 L 11.84375 -3.609375 C 11.476562 -2.128906 10.875 -1.085938 10.03125 -0.484375 C 9.1875 0.109375 7.878906 0.40625 6.109375 0.40625 C 4.078125 0.40625 2.757812 0.0820312 2.15625 -0.5625 C 1.769531 -0.96875 1.578125 -1.59375 1.578125 -2.4375 C 1.578125 -2.90625 1.640625 -3.4375 1.765625 -4.03125 Z M 3.515625 -13.0625 "/></g></g></g><g fill="#ffffff" fill-opacity="1"><g transform="translate(215.70799, 25.774964)"><g/></g></g><g fill="#ffffff" fill-opacity="1"><g transform="translate(225.592986, 25.774964)"><g><path d="M -2.21875 0 L -1.90625 -1.671875 L -0.203125 -1.671875 L 11.296875 -20.703125 L 14.609375 -20.703125 L 18.71875 -1.671875 L 20.6875 -1.671875 L 20.359375 0 L 10.671875 0 L 10.984375 -1.671875 L 13.015625 -1.671875 L 12.140625 -5.90625 L 4.359375 -5.90625 L 1.796875 -1.671875 L 4.265625 -1.671875 L 3.9375 0 Z M 5.359375 -7.59375 L 11.78125 -7.59375 L 10.125 -15.5 Z M 5.359375 -7.59375 "/></g></g></g><g fill="#ffffff" fill-opacity="1"><g transform="translate(247.622792, 25.774964)"><g><path d="M 16.6875 -14.90625 L 15.828125 -10.515625 L 14.265625 -10.515625 C 14.285156 -10.710938 14.296875 -10.890625 14.296875 -11.046875 C 14.296875 -11.566406 14.1875 -11.972656 13.96875 -12.265625 C 13.675781 -12.648438 13.175781 -12.84375 12.46875 -12.84375 C 11.394531 -12.84375 10.457031 -12.367188 9.65625 -11.421875 C 8.851562 -10.484375 8.289062 -9.175781 7.96875 -7.5 L 6.5 0 L 1.59375 0 L 4.140625 -13.0625 L 1.890625 -13.0625 L 2.203125 -14.75 L 9.359375 -14.75 L 8.859375 -12.125 C 9.535156 -13.144531 10.316406 -13.898438 11.203125 -14.390625 C 12.085938 -14.890625 13.109375 -15.140625 14.265625 -15.140625 C 14.546875 -15.140625 14.882812 -15.117188 15.28125 -15.078125 C 15.6875 -15.035156 16.15625 -14.976562 16.6875 -14.90625 Z M 16.6875 -14.90625 "/></g></g></g><g fill="#ffffff" fill-opacity="1"><g transform="translate(262.581989, 25.774964)"><g><path d="M 11.671875 -12.15625 C 11.640625 -12.707031 11.359375 -12.984375 10.828125 -12.984375 C 9.585938 -12.984375 8.363281 -12.242188 7.15625 -10.765625 C 6.59375 -10.078125 6.085938 -8.59375 5.640625 -6.3125 C 5.304688 -4.601562 5.257812 -3.414062 5.5 -2.75 C 5.738281 -2.09375 6.300781 -1.765625 7.1875 -1.765625 C 8.039062 -1.765625 8.738281 -2.144531 9.28125 -2.90625 C 9.820312 -3.675781 10.257812 -4.921875 10.59375 -6.640625 Z M 16.375 -14.296875 L 13.953125 -1.671875 L 15.796875 -1.703125 L 15.46875 0 L 9.3125 0 L 9.671875 -1.875 C 8.648438 -0.351562 7.238281 0.40625 5.4375 0.40625 C 3.65625 0.40625 2.363281 -0.179688 1.5625 -1.359375 C 0.769531 -2.546875 0.578125 -4.164062 0.984375 -6.21875 C 1.378906 -8.28125 2.46875 -10.203125 4.25 -11.984375 C 6.34375 -14.085938 8.796875 -15.140625 11.609375 -15.140625 C 14.378906 -15.140625 15.96875 -14.859375 16.375 -14.296875 Z M 16.375 -14.296875 "/></g></g></g><g fill="#ffffff" fill-opacity="1"><g transform="translate(280.979444, 25.774964)"><g><path d="M 1.59375 0 L 4.140625 -13.0625 L 2.03125 -13.0625 L 2.359375 -14.75 L 9.359375 -14.75 L 8.953125 -12.65625 C 9.722656 -13.539062 10.523438 -14.175781 11.359375 -14.5625 C 12.191406 -14.945312 13.1875 -15.140625 14.34375 -15.140625 C 16 -15.140625 17.15625 -14.648438 17.8125 -13.671875 C 18.238281 -13.054688 18.453125 -12.25 18.453125 -11.25 C 18.453125 -10.6875 18.378906 -10.0625 18.234375 -9.375 L 16.734375 -1.671875 L 18.84375 -1.671875 L 18.53125 0 L 11.515625 0 L 13.359375 -9.515625 C 13.484375 -10.160156 13.546875 -10.707031 13.546875 -11.15625 C 13.546875 -11.5625 13.492188 -11.882812 13.390625 -12.125 C 13.160156 -12.601562 12.65625 -12.84375 11.875 -12.84375 C 10.882812 -12.84375 10.085938 -12.476562 9.484375 -11.75 C 8.878906 -11.03125 8.421875 -9.878906 8.109375 -8.296875 L 6.5 0 Z M 1.59375 0 "/></g></g></g><g fill="#ffffff" fill-opacity="1"><g transform="translate(301.622856, 25.774964)"><g><path d="M 0.78125 -4.546875 L 2.34375 -4.546875 C 2.332031 -4.410156 2.328125 -4.273438 2.328125 -4.140625 C 2.328125 -3.234375 2.597656 -2.507812 3.140625 -1.96875 C 3.691406 -1.4375 4.519531 -1.171875 5.625 -1.171875 C 7.769531 -1.171875 8.972656 -1.835938 9.234375 -3.171875 C 9.273438 -3.347656 9.296875 -3.566406 9.296875 -3.828125 C 9.296875 -4.078125 9.175781 -4.335938 8.9375 -4.609375 C 8.695312 -4.890625 8.117188 -5.148438 7.203125 -5.390625 L 5.265625 -5.90625 C 3.816406 -6.289062 2.859375 -6.78125 2.390625 -7.375 C 1.929688 -7.976562 1.703125 -8.648438 1.703125 -9.390625 C 1.703125 -9.703125 1.734375 -10.039062 1.796875 -10.40625 C 2.117188 -12 2.910156 -13.1875 4.171875 -13.96875 C 5.429688 -14.75 7.066406 -15.140625 9.078125 -15.140625 C 11.097656 -15.140625 13.207031 -14.847656 15.40625 -14.265625 L 14.671875 -10.546875 L 13.109375 -10.546875 C 13.140625 -10.722656 13.15625 -10.890625 13.15625 -11.046875 C 13.15625 -12.734375 12.109375 -13.578125 10.015625 -13.578125 C 7.910156 -13.578125 6.738281 -12.953125 6.5 -11.703125 C 6.476562 -11.554688 6.46875 -11.378906 6.46875 -11.171875 C 6.46875 -10.566406 7.035156 -10.113281 8.171875 -9.8125 L 10.078125 -9.296875 C 11.921875 -8.804688 13.097656 -8.253906 13.609375 -7.640625 C 14.117188 -7.023438 14.375 -6.316406 14.375 -5.515625 C 14.375 -5.191406 14.335938 -4.84375 14.265625 -4.46875 C 13.929688 -2.800781 13.09375 -1.570312 11.75 -0.78125 C 10.414062 0.0078125 8.492188 0.40625 5.984375 0.40625 C 4.171875 0.40625 2.171875 0.125 -0.015625 -0.4375 Z M 0.78125 -4.546875 "/></g></g></g><g fill="#ffffff" fill-opacity="1"><g transform="translate(317.607984, 25.774964)"><g><path d="M 11.671875 -12.15625 C 11.640625 -12.707031 11.359375 -12.984375 10.828125 -12.984375 C 9.585938 -12.984375 8.363281 -12.242188 7.15625 -10.765625 C 6.59375 -10.078125 6.085938 -8.59375 5.640625 -6.3125 C 5.304688 -4.601562 5.257812 -3.414062 5.5 -2.75 C 5.738281 -2.09375 6.300781 -1.765625 7.1875 -1.765625 C 8.039062 -1.765625 8.738281 -2.144531 9.28125 -2.90625 C 9.820312 -3.675781 10.257812 -4.921875 10.59375 -6.640625 Z M 16.375 -14.296875 L 13.953125 -1.671875 L 15.796875 -1.703125 L 15.46875 0 L 9.3125 0 L 9.671875 -1.875 C 8.648438 -0.351562 7.238281 0.40625 5.4375 0.40625 C 3.65625 0.40625 2.363281 -0.179688 1.5625 -1.359375 C 0.769531 -2.546875 0.578125 -4.164062 0.984375 -6.21875 C 1.378906 -8.28125 2.46875 -10.203125 4.25 -11.984375 C 6.34375 -14.085938 8.796875 -15.140625 11.609375 -15.140625 C 14.378906 -15.140625 15.96875 -14.859375 16.375 -14.296875 Z M 16.375 -14.296875 "/></g></g></g><g fill="#ffffff" fill-opacity="1"><g transform="translate(336.005439, 25.774964)"><g><path d="M 0.78125 -4.546875 L 2.34375 -4.546875 C 2.332031 -4.410156 2.328125 -4.273438 2.328125 -4.140625 C 2.328125 -3.234375 2.597656 -2.507812 3.140625 -1.96875 C 3.691406 -1.4375 4.519531 -1.171875 5.625 -1.171875 C 7.769531 -1.171875 8.972656 -1.835938 9.234375 -3.171875 C 9.273438 -3.347656 9.296875 -3.566406 9.296875 -3.828125 C 9.296875 -4.078125 9.175781 -4.335938 8.9375 -4.609375 C 8.695312 -4.890625 8.117188 -5.148438 7.203125 -5.390625 L 5.265625 -5.90625 C 3.816406 -6.289062 2.859375 -6.78125 2.390625 -7.375 C 1.929688 -7.976562 1.703125 -8.648438 1.703125 -9.390625 C 1.703125 -9.703125 1.734375 -10.039062 1.796875 -10.40625 C 2.117188 -12 2.910156 -13.1875 4.171875 -13.96875 C 5.429688 -14.75 7.066406 -15.140625 9.078125 -15.140625 C 11.097656 -15.140625 13.207031 -14.847656 15.40625 -14.265625 L 14.671875 -10.546875 L 13.109375 -10.546875 C 13.140625 -10.722656 13.15625 -10.890625 13.15625 -11.046875 C 13.15625 -12.734375 12.109375 -13.578125 10.015625 -13.578125 C 7.910156 -13.578125 6.738281 -12.953125 6.5 -11.703125 C 6.476562 -11.554688 6.46875 -11.378906 6.46875 -11.171875 C 6.46875 -10.566406 7.035156 -10.113281 8.171875 -9.8125 L 10.078125 -9.296875 C 11.921875 -8.804688 13.097656 -8.253906 13.609375 -7.640625 C 14.117188 -7.023438 14.375 -6.316406 14.375 -5.515625 C 14.375 -5.191406 14.335938 -4.84375 14.265625 -4.46875 C 13.929688 -2.800781 13.09375 -1.570312 11.75 -0.78125 C 10.414062 0.0078125 8.492188 0.40625 5.984375 0.40625 C 4.171875 0.40625 2.171875 0.125 -0.015625 -0.4375 Z M 0.78125 -4.546875 "/></g></g></g><g fill="#ffffff" fill-opacity="1"><g transform="translate(351.990568, 25.774964)"><g/></g></g><g fill="#70b6ff" fill-opacity="1"><g transform="translate(361.890287, 25.774964)"><g><path d="M 1.328125 0 L 1.328125 -1.671875 L 3.984375 -1.671875 L 3.984375 -19.03125 L 1.328125 -19.03125 L 1.328125 -20.703125 L 11.984375 -20.703125 L 11.984375 -19.03125 L 9.328125 -19.03125 L 9.328125 -1.90625 L 17.46875 -1.90625 L 17.46875 -5.171875 L 19.34375 -5.171875 L 19.34375 0 Z M 1.328125 0 "/></g></g></g><g fill="#70b6ff" fill-opacity="1"><g transform="translate(381.854358, 25.774964)"><g><path d="M 2.609375 -18.921875 C 2.609375 -19.671875 2.863281 -20.300781 3.375 -20.8125 C 3.894531 -21.320312 4.53125 -21.578125 5.28125 -21.578125 C 6.007812 -21.578125 6.628906 -21.320312 7.140625 -20.8125 C 7.660156 -20.300781 7.921875 -19.671875 7.921875 -18.921875 C 7.921875 -18.191406 7.660156 -17.566406 7.140625 -17.046875 C 6.628906 -16.535156 6.007812 -16.28125 5.28125 -16.28125 C 4.53125 -16.28125 3.894531 -16.535156 3.375 -17.046875 C 2.863281 -17.554688 2.609375 -18.179688 2.609375 -18.921875 Z M 7.96875 -1.671875 L 10.078125 -1.671875 L 10.078125 0 L 0.96875 0 L 0.96875 -1.671875 L 3.0625 -1.671875 L 3.0625 -13.0625 L 0.96875 -13.0625 L 0.96875 -14.75 L 7.96875 -14.75 Z M 7.96875 -1.671875 "/></g></g></g><g fill="#70b6ff" fill-opacity="1"><g transform="translate(392.640503, 25.774964)"><g><path d="M 9.828125 0 L 0.96875 0 L 0.96875 -1.671875 L 3.0625 -1.671875 L 3.0625 -19.921875 L 0.96875 -19.921875 L 0.96875 -21.578125 L 7.96875 -21.578125 L 7.96875 -7.71875 L 13.921875 -13.0625 L 12.171875 -13.0625 L 12.171875 -14.75 L 18.890625 -14.75 L 18.890625 -13.0625 L 16.15625 -13.0625 L 12.359375 -9.65625 L 18.578125 -1.671875 L 20.171875 -1.671875 L 20.171875 0 L 11.703125 0 L 11.703125 -1.671875 L 13.4375 -1.671875 L 9.34375 -6.9375 L 7.96875 -5.71875 L 7.96875 -1.671875 L 9.828125 -1.671875 Z M 9.828125 0 "/></g></g></g><g fill="#70b6ff" fill-opacity="1"><g transform="translate(412.313439, 25.774964)"><g><path d="M 11.390625 -8.328125 C 11.390625 -10.265625 11.207031 -11.625 10.84375 -12.40625 C 10.488281 -13.1875 9.875 -13.578125 9 -13.578125 C 8.15625 -13.578125 7.550781 -13.191406 7.1875 -12.421875 C 6.820312 -11.660156 6.640625 -10.378906 6.640625 -8.578125 L 6.640625 -8.328125 Z M 16.78125 -6.671875 L 6.640625 -6.671875 L 6.640625 -6.5625 C 6.640625 -4.65625 6.925781 -3.28125 7.5 -2.4375 C 8.070312 -1.59375 9 -1.171875 10.28125 -1.171875 C 11.34375 -1.171875 12.203125 -1.453125 12.859375 -2.015625 C 13.515625 -2.578125 13.9375 -3.394531 14.125 -4.46875 L 16.421875 -4.46875 C 16.023438 -2.789062 15.234375 -1.554688 14.046875 -0.765625 C 12.867188 0.015625 11.210938 0.40625 9.078125 0.40625 C 6.523438 0.40625 4.566406 -0.265625 3.203125 -1.609375 C 1.847656 -2.960938 1.171875 -4.882812 1.171875 -7.375 C 1.171875 -9.820312 1.867188 -11.726562 3.265625 -13.09375 C 4.660156 -14.457031 6.597656 -15.140625 9.078125 -15.140625 C 11.523438 -15.140625 13.398438 -14.421875 14.703125 -12.984375 C 16.003906 -11.546875 16.695312 -9.441406 16.78125 -6.671875 Z M 16.78125 -6.671875 "/></g></g></g><g fill="#70b6ff" fill-opacity="1"><g transform="translate(430.378158, 25.774964)"><g/></g></g><g fill="#70b6ff" fill-opacity="1"><g transform="translate(440.263154, 25.774964)"><g><path d="M 15.640625 -9.0625 L 15.640625 -1.671875 L 17.75 -1.671875 L 17.75 0 L 10.734375 0 L 10.734375 -1.875 C 10.085938 -1.09375 9.363281 -0.515625 8.5625 -0.140625 C 7.769531 0.222656 6.867188 0.40625 5.859375 0.40625 C 4.347656 0.40625 3.1875 0 2.375 -0.8125 C 1.570312 -1.625 1.171875 -2.78125 1.171875 -4.28125 C 1.171875 -5.9375 1.75 -7.175781 2.90625 -8 C 4.0625 -8.820312 5.8125 -9.234375 8.15625 -9.234375 L 10.734375 -9.234375 L 10.734375 -10.109375 C 10.734375 -11.304688 10.453125 -12.1875 9.890625 -12.75 C 9.328125 -13.320312 8.453125 -13.609375 7.265625 -13.609375 C 6.285156 -13.609375 5.53125 -13.40625 5 -13 C 4.46875 -12.601562 4.09375 -11.945312 3.875 -11.03125 L 2.296875 -11.03125 L 2.296875 -14.203125 C 3.179688 -14.515625 4.09375 -14.75 5.03125 -14.90625 C 5.976562 -15.0625 6.972656 -15.140625 8.015625 -15.140625 C 10.648438 -15.140625 12.578125 -14.648438 13.796875 -13.671875 C 15.023438 -12.691406 15.640625 -11.15625 15.640625 -9.0625 Z M 10.734375 -4.625 L 10.734375 -7.59375 L 8.890625 -7.59375 C 7.972656 -7.59375 7.269531 -7.34375 6.78125 -6.84375 C 6.289062 -6.34375 6.046875 -5.625 6.046875 -4.6875 C 6.046875 -3.75 6.222656 -3.050781 6.578125 -2.59375 C 6.929688 -2.132812 7.476562 -1.90625 8.21875 -1.90625 C 8.96875 -1.90625 9.570312 -2.148438 10.03125 -2.640625 C 10.5 -3.140625 10.734375 -3.800781 10.734375 -4.625 Z M 10.734375 -4.625 "/></g></g></g><g fill="#70b6ff" fill-opacity="1"><g transform="translate(458.660608, 25.774964)"><g/></g></g><g fill="#70b6ff" fill-opacity="1"><g transform="translate(468.545604, 25.774964)"><g><path d="M 1.328125 0 L 1.328125 -1.671875 L 3.984375 -1.671875 L 3.984375 -19.03125 L 1.328125 -19.03125 L 1.328125 -20.703125 L 11.984375 -20.703125 L 11.984375 -19.03125 L 9.328125 -19.03125 L 9.328125 -1.90625 L 17.46875 -1.90625 L 17.46875 -5.171875 L 19.34375 -5.171875 L 19.34375 0 Z M 1.328125 0 "/></g></g></g><g fill="#70b6ff" fill-opacity="1"><g transform="translate(488.509675, 25.774964)"><g><path d="M 9.484375 -1.171875 C 10.523438 -1.171875 11.253906 -1.613281 11.671875 -2.5 C 12.085938 -3.382812 12.296875 -5.007812 12.296875 -7.375 C 12.296875 -9.75 12.085938 -11.375 11.671875 -12.25 C 11.253906 -13.132812 10.523438 -13.578125 9.484375 -13.578125 C 8.441406 -13.578125 7.707031 -13.128906 7.28125 -12.234375 C 6.851562 -11.347656 6.640625 -9.726562 6.640625 -7.375 C 6.640625 -5.03125 6.851562 -3.410156 7.28125 -2.515625 C 7.707031 -1.617188 8.441406 -1.171875 9.484375 -1.171875 Z M 9.484375 0.40625 C 6.890625 0.40625 4.851562 -0.285156 3.375 -1.671875 C 1.90625 -3.054688 1.171875 -4.957031 1.171875 -7.375 C 1.171875 -9.8125 1.90625 -11.710938 3.375 -13.078125 C 4.851562 -14.453125 6.890625 -15.140625 9.484375 -15.140625 C 12.097656 -15.140625 14.140625 -14.453125 15.609375 -13.078125 C 17.078125 -11.710938 17.8125 -9.8125 17.8125 -7.375 C 17.8125 -4.957031 17.070312 -3.054688 15.59375 -1.671875 C 14.125 -0.285156 12.085938 0.40625 9.484375 0.40625 Z M 9.484375 0.40625 "/></g></g></g><g fill="#70b6ff" fill-opacity="1"><g transform="translate(507.447816, 25.774964)"><g><path d="M 16.015625 -4.609375 C 15.671875 -2.921875 14.953125 -1.660156 13.859375 -0.828125 C 12.773438 -0.00390625 11.300781 0.40625 9.4375 0.40625 C 6.8125 0.40625 4.773438 -0.269531 3.328125 -1.625 C 1.890625 -2.988281 1.171875 -4.90625 1.171875 -7.375 C 1.171875 -9.820312 1.878906 -11.726562 3.296875 -13.09375 C 4.722656 -14.457031 6.703125 -15.140625 9.234375 -15.140625 C 10.265625 -15.140625 11.300781 -15.039062 12.34375 -14.84375 C 13.382812 -14.65625 14.445312 -14.367188 15.53125 -13.984375 L 15.53125 -9.890625 L 13.984375 -9.890625 C 13.835938 -11.140625 13.472656 -12.066406 12.890625 -12.671875 C 12.304688 -13.273438 11.488281 -13.578125 10.4375 -13.578125 C 9.0625 -13.578125 8.082031 -13.113281 7.5 -12.1875 C 6.925781 -11.269531 6.640625 -9.664062 6.640625 -7.375 C 6.640625 -5.144531 6.921875 -3.550781 7.484375 -2.59375 C 8.054688 -1.644531 8.976562 -1.171875 10.25 -1.171875 C 11.238281 -1.171875 12.03125 -1.460938 12.625 -2.046875 C 13.226562 -2.640625 13.59375 -3.492188 13.71875 -4.609375 Z M 16.015625 -4.609375 "/></g></g></g><g fill="#70b6ff" fill-opacity="1"><g transform="translate(524.736155, 25.774964)"><g><path d="M 15.640625 -9.0625 L 15.640625 -1.671875 L 17.75 -1.671875 L 17.75 0 L 10.734375 0 L 10.734375 -1.875 C 10.085938 -1.09375 9.363281 -0.515625 8.5625 -0.140625 C 7.769531 0.222656 6.867188 0.40625 5.859375 0.40625 C 4.347656 0.40625 3.1875 0 2.375 -0.8125 C 1.570312 -1.625 1.171875 -2.78125 1.171875 -4.28125 C 1.171875 -5.9375 1.75 -7.175781 2.90625 -8 C 4.0625 -8.820312 5.8125 -9.234375 8.15625 -9.234375 L 10.734375 -9.234375 L 10.734375 -10.109375 C 10.734375 -11.304688 10.453125 -12.1875 9.890625 -12.75 C 9.328125 -13.320312 8.453125 -13.609375 7.265625 -13.609375 C 6.285156 -13.609375 5.53125 -13.40625 5 -13 C 4.46875 -12.601562 4.09375 -11.945312 3.875 -11.03125 L 2.296875 -11.03125 L 2.296875 -14.203125 C 3.179688 -14.515625 4.09375 -14.75 5.03125 -14.90625 C 5.976562 -15.0625 6.972656 -15.140625 8.015625 -15.140625 C 10.648438 -15.140625 12.578125 -14.648438 13.796875 -13.671875 C 15.023438 -12.691406 15.640625 -11.15625 15.640625 -9.0625 Z M 10.734375 -4.625 L 10.734375 -7.59375 L 8.890625 -7.59375 C 7.972656 -7.59375 7.269531 -7.34375 6.78125 -6.84375 C 6.289062 -6.34375 6.046875 -5.625 6.046875 -4.6875 C 6.046875 -3.75 6.222656 -3.050781 6.578125 -2.59375 C 6.929688 -2.132812 7.476562 -1.90625 8.21875 -1.90625 C 8.96875 -1.90625 9.570312 -2.148438 10.03125 -2.640625 C 10.5 -3.140625 10.734375 -3.800781 10.734375 -4.625 Z M 10.734375 -4.625 "/></g></g></g><g fill="#70b6ff" fill-opacity="1"><g transform="translate(543.133609, 25.774964)"><g><path d="M 7.96875 -1.671875 L 10.078125 -1.671875 L 10.078125 0 L 0.96875 0 L 0.96875 -1.671875 L 3.0625 -1.671875 L 3.0625 -19.921875 L 0.96875 -19.921875 L 0.96875 -21.578125 L 7.96875 -21.578125 Z M 7.96875 -1.671875 "/></g></g></g></g></g></svg>