<?xml version="1.0" encoding="UTF-8"?>
<svg id="Layer_1" data-name="Layer 1" xmlns="http://www.w3.org/2000/svg" viewBox="0 0 128 128">
  <defs>
    <style>
      .cls-1 {
        fill: #1b2d4c;
      }
    </style>
  </defs>
  <path class="cls-1" d="M29.89,108.48c-.28,0-.24-.34-.18-.41.08-.1.19-.11.42-.19,6.02-2.31,12.26-3.77,18.71-4.24l2.12-.25,10.42-56.34-2.27-1.42c-.75-.47-1.83-.76-2.77-.54-3.83.89-7.5.11-10.69-2.1-1.29-.9-2.79-1.09-4.26-1.11-.7-.01-.93.24-1.49.41-2.48.76-5.24.07-7.41-1.28-.9-.56-1.81-1.16-2.83-1.15l-3.6.03c-1.85-.21-3.4-1.32-4.72-2.56-.24-.22-.27-.49-.39-.81-.97.8-1.93.43-2.62-.37-.77-.88-.62-1.99-.52-3.11.06-.69.03-1.21.76-1.63,3.38-1.92,6.85-3.36,10.6-4.54,7.69-2.43,15.5-4.04,23.53-4.7l2.16-.18c.91-.07,1.76-.14,2.66-.17l3.6-.11,4-.15c.22-1.06.92-2.05,2.05-2.05.88,0,1.46.96,1.47,1.78,0,.65.23.89.77,1.11l7.68,2.99c10.96,4.28,25.2,12.66,32.7,21.69.44.53.65,1.05.41,1.74l-.64,1.83c-.25.71-.82,1.1-1.35,1.28-.78.27-1.44.11-2.13-.35-2.21,1.63-5.04,1.43-7.53.24-1.33-.64-2.6-.76-4.07-.4-2.81.69-5.9.4-8.1-1.58-.44-.4-.38-.55-1.05-.66-1.72-.27-3.29-.08-5,.23-3.28.58-6.54-.32-9.42-1.91-3.11-1.72-6.35-.53-6.46.05l-10.35,55.91,5.57.07,1.54.13c6.86.56,13.5,2.04,20,4.25.17.06.28.08.37.07.13,0,.14.5.02.5H29.89Z"/>
</svg>