<?xml version="1.0" encoding="UTF-8"?>
<svg id="Layer_1" data-name="Layer 1" xmlns="http://www.w3.org/2000/svg" viewBox="0 0 128 128">
  <defs>
    <style>
      .cls-1 {
        fill: #f18388;
      }
    </style>
  </defs>
  <path class="cls-1" d="M74.14,111.96l-3.01.24-14-.02c-3.1,0-13.07-1.17-13.46-2.33-.23-.67.74-1.45,1.51-1.6l10.99-2.17c1.43-.28,2.7-.8,3.59-2.01,1.27-1.75,2.07-3.83,2.14-6.05l.19-5.84.02-22.6-.25-4.32-.15-3.76c-.09-2.19-.63-4.22-2.04-6.04L31.69,19.28c-.2-.26-.22-.56-.18-.74.13-.61,4.68-1.37,6.77-1.55l2.27-.2c1.34-.12,2.59-.03,3.91-.22,1.07-.16,2.14.1,3.2-.13l4.14-.19,4.49-.22,4.36-.17c1.55-.06,3.15-.06,4.71,0l5.18.18,5.15.2,5.31.23,3.84.13c1.05.04,2.05.05,3.09.19l6.7.91c.56.08,1.79.28,1.88.92.06.67-.64,1.39-1.09,1.97l-25.47,32.93c-1.61,2.08-3.26,3.9-3.4,6.73l-.21,1.82-.13,6.09-.21,7.6-.03,16.24.21,4.95c.09,2.14.37,4.06,1.47,5.97.72,1.24,1.75,2.59,3.26,2.88l7.44,1.42c2.19.42,5.95,1,6.07,2.1.03.24-.14.81-.48.92-3.15,1.01-6.4,1.48-9.81,1.74ZM77.36,20.15l4.73-.21,3.16-.15,2.26-.2c1.73-.15,3.35-.24,5.2-.75-.89-.61-1.96-.32-2.92-.48-1.07-.19-2.05-.15-3.12-.21l-3.5-.21c-1.18-.07-2.29-.18-3.51-.19-1.08-.01-2.14-.33-3.27-.16-.86.13-1.65-.19-2.5-.19h-21.97c-.85,0-1.64.32-2.5.2-1.13-.17-2.19.12-3.28.16-1.16.04-2.19.09-3.32.18l-2.86.22-4.57.53c1.35.58,2.81.69,4.33.81l2.27.18c2.07.17,5.53.5,6.6.35,1.01-.14,1.9.22,2.9.22l25.88-.09ZM71.25,48.33l8.05-10.06.84-1.08.82-1.03c1.03-1.3,2.03-2.59,3.05-3.85l.94-1.17,3.86-4.77-.3-.29-13.5,15.84c-2.34,2.75-4.58,5.23-7.54,7.31-2.05,1.44-4.49,1.44-6.66.16-1.77-1.05-3.1-2.45-4.5-3.95l-2.88-3.08-1.95-2.19-11.74-13.87c-.08.1-.15.18-.29.27l17.82,22.37c1.37,1.72,4.83,2.65,7.38,2.63s4.9-1.11,6.6-3.23Z"/>
  <path class="cls-1" d="M65.83,53.09c10.91-6.47,16.29-18.4,24.87-27.26,2.24-2.31-1.29-5.85-3.54-3.54-8.21,8.48-13.44,20.29-23.86,26.47-2.77,1.64-.25,5.96,2.52,4.32h0Z"/>
  <path class="cls-1" d="M63.44,48.7c-3.67-4.86-7.35-9.72-11.02-14.58l-5.36-7.09c-1.6-2.11-3.47-4.63-6.46-4.37-1.65.14-3.43,2.11-2.16,3.76,7.26,9.45,14.24,19.1,20.95,28.95,1.8,2.64,6.14.15,4.32-2.52-6.71-9.85-13.69-19.5-20.95-28.95l-2.16,3.76c.68-.06,1.07.55,1.48,1.04.81.97,1.53,2.01,2.29,3.02l4.91,6.5,9.83,13c.81,1.08,2.16,1.64,3.42.9,1.06-.62,1.72-2.34.9-3.42h0Z"/>
</svg>