<svg xmlns="http://www.w3.org/2000/svg" xmlns:xlink="http://www.w3.org/1999/xlink" width="940" zoomAndPan="magnify" viewBox="0 0 705.12 599.04" height="788" preserveAspectRatio="xMidYMid meet" version="1.0"><path fill="#ffffff" d="M 235.332031 448.511719 L 292.226562 448.511719 C 292.226562 464.230469 279.5 476.984375 263.777344 476.984375 C 248.050781 476.984375 235.332031 464.230469 235.332031 448.511719 Z M 505.046875 420.0625 C 520.765625 420.0625 533.519531 432.792969 533.519531 448.511719 C 533.519531 464.230469 520.761719 476.984375 505.046875 476.984375 C 489.347656 476.984375 476.59375 464.226562 476.59375 448.511719 C 476.59375 442.738281 478.351562 437.085938 481.632812 432.335938 L 496.53125 451.253906 C 499.300781 455.03125 504.050781 456.683594 508.125 454.332031 C 512.195312 451.976562 512.960938 447.121094 511.230469 442.765625 L 499.871094 420.542969 C 501.585938 420.230469 503.3125 420.0625 505.046875 420.0625 Z M 211.804688 229.78125 C 213.027344 229.894531 214.519531 230.6875 216.21875 231.875 C 231.511719 242.363281 236.265625 272.03125 222.804688 285.480469 C 220.855469 287.441406 220.003906 288.628906 220.003906 291.992188 L 220.003906 323.71875 C 220.003906 329.691406 208.578125 329.691406 208.578125 323.691406 L 208.550781 283.597656 L 208.550781 236.257812 C 208.546875 231.277344 209.789062 229.613281 211.804688 229.78125 Z M 179.425781 229.78125 C 180.835938 229.753906 182.277344 231.003906 182.394531 233.429688 L 183.417969 257.429688 C 183.304688 260.941406 188.558594 260.941406 188.445312 257.429688 L 188.445312 234.195312 C 188.445312 231.191406 190.089844 230.351562 192.402344 233.175781 C 196.167969 237.730469 198.230469 247.992188 198.230469 255.339844 C 198.230469 265.128906 194.296875 274.03125 187.996094 278.222656 C 185.671875 279.746094 185.191406 280.257812 185.191406 283.625 L 185.191406 323.691406 C 185.191406 329.6875 173.679688 329.6875 173.679688 323.691406 L 173.679688 283.625 C 173.566406 280.425781 173.589844 279.886719 170.851562 278.195312 C 164.4375 274.207031 160.609375 265.128906 160.609375 255.339844 C 160.609375 248.019531 162.707031 237.730469 166.441406 233.175781 C 168.789062 230.34375 170.429688 231.191406 170.429688 234.195312 L 170.429688 257.429688 C 170.28125 260.941406 175.570312 260.941406 175.460938 257.429688 L 176.484375 233.597656 C 176.589844 231.050781 178.015625 229.78125 179.425781 229.78125 Z M 315.320312 168.390625 C 305.679688 168.617188 296.402344 173.585938 293.917969 182.277344 L 266.6875 276.695312 C 262.476562 291.371094 267.25 311.023438 289.507812 311.023438 L 359.121094 311.023438 L 374.394531 391.902344 C 377.078125 406.144531 404.226562 406.378906 403.125 391.871094 L 396.25 300.417969 C 395.148438 285.746094 389.207031 280.257812 378.582031 278.847656 L 325.296875 270.753906 L 330.695312 225.425781 L 355.699219 244.34375 C 360.929688 248.300781 363.355469 248.925781 369.328125 249.96875 L 399.808594 255.371094 C 403.03125 255.953125 404.472656 257.292969 406.628906 262.570312 L 452.003906 373.679688 C 462.300781 398.882812 454.265625 415.984375 421.441406 415.984375 L 362.890625 415.984375 C 337.550781 415.984375 324.042969 394.492188 332.289062 375.886719 L 344.335938 348.800781 C 349.792969 336.523438 343.292969 323.625 330.171875 323.625 L 253.175781 323.625 L 253.175781 205.410156 C 253.175781 188.214844 244.066406 183.152344 228.828125 183.152344 L 196.167969 183.152344 C 164.546875 183.152344 139.128906 208.570312 139.128906 240.191406 L 139.128906 333.617188 C 139.128906 343.734375 146.683594 351.910156 156.039062 351.910156 L 217.539062 351.910156 C 189.65625 369.417969 171.953125 403.71875 174.953125 433.859375 C 176.253906 446.953125 183.824219 448.511719 189.433594 448.511719 L 207.5 448.511719 C 207.5 479.585938 232.695312 504.804688 263.765625 504.804688 C 294.835938 504.804688 320.074219 479.582031 320.074219 448.511719 L 448.765625 448.511719 C 448.765625 479.585938 473.953125 504.804688 505.035156 504.804688 C 536.144531 504.804688 561.328125 479.582031 561.328125 448.511719 C 561.304688 438.640625 558.699219 428.941406 553.753906 420.398438 L 557.199219 420.933594 C 563.53125 421.902344 565.175781 414.148438 562.039062 407.335938 C 551.65625 384.714844 529.605469 369.867188 505.136719 368.652344 C 502.757812 368.539062 500.585938 367.160156 500.585938 364.238281 L 500.585938 359.746094 C 500.585938 354.253906 500.621094 349.828125 496.292969 343.914062 L 435.335938 258.992188 C 432.25 253.679688 433.042969 250.714844 438.394531 250.714844 L 448.6875 250.714844 C 455.609375 250.714844 460.640625 249.269531 459.65625 241.210938 L 456.597656 220.988281 C 455.804688 214.683594 453.152344 210.378906 444.039062 210.378906 L 427.917969 210.378906 C 410.757812 210.378906 403.804688 222.289062 399.222656 228.503906 C 398.339844 229.671875 397.664062 230.660156 397.046875 231.5625 L 372.476562 223.757812 L 335.46875 176.957031 C 330.535156 170.902344 322.820312 168.222656 315.320312 168.390625 Z M 315.320312 168.390625 " fill-opacity="1" fill-rule="evenodd"/><path fill="#ffffff" d="M 331.867188 86.359375 C 315.582031 85.316406 300.453125 94.953125 294.535156 110.167969 C 288.628906 125.417969 293.15625 142.859375 306.015625 152.925781 C 313.253906 158.582031 321.917969 162.566406 329.511719 162.621094 C 347.949219 162.683594 362.9375 147.636719 363.089844 129.226562 L 353.523438 129.792969 C 353.097656 142.804688 342.609375 153.125 329.511719 153.125 C 327.984375 153.125 326.519531 152.984375 325.078125 152.703125 C 326.605469 150.578125 327.707031 147.808594 328.472656 144.613281 C 333.054688 125.382812 346.800781 125.101562 359.582031 124.167969 C 363.285156 123.886719 368.269531 123.886719 372.667969 123.886719 C 380.25 123.886719 380.503906 114.324219 374.003906 113.050781 L 365.292969 111.527344 C 362.890625 104.96875 358.761719 99.308594 353.164062 94.671875 C 347.53125 90.027344 340.042969 86.894531 331.867188 86.359375 Z M 331.867188 86.359375 " fill-opacity="1" fill-rule="evenodd"/></svg>