<svg xmlns="http://www.w3.org/2000/svg" xmlns:xlink="http://www.w3.org/1999/xlink" width="940" zoomAndPan="magnify" viewBox="0 0 705.12 599.04" height="788" preserveAspectRatio="xMidYMid meet" version="1.0"><defs><clipPath id="1a3d62481f"><path d="M 117.667969 141 L 188 141 L 188 460.835938 L 117.667969 460.835938 Z M 117.667969 141 " clip-rule="nonzero"/></clipPath><clipPath id="3a4f5cfbeb"><path d="M 483 141 L 583 141 L 583 460.835938 L 483 460.835938 Z M 483 141 " clip-rule="nonzero"/></clipPath></defs><path fill="#ffffff" d="M 421.953125 208.507812 C 423.25 209.804688 424.515625 211.136719 425.75 212.496094 C 426.984375 213.855469 428.183594 215.246094 429.347656 216.667969 C 430.515625 218.085938 431.644531 219.535156 432.738281 221.007812 C 433.832031 222.484375 434.890625 223.984375 435.910156 225.511719 C 436.929688 227.039062 437.914062 228.589844 438.855469 230.167969 C 439.800781 231.742188 440.707031 233.339844 441.574219 234.957031 C 442.4375 236.578125 443.265625 238.21875 444.050781 239.878906 C 444.835938 241.539062 445.578125 243.21875 446.28125 244.914062 C 446.984375 246.609375 447.648438 248.324219 448.265625 250.050781 C 448.886719 251.78125 449.460938 253.523438 449.996094 255.28125 C 450.527344 257.039062 451.019531 258.808594 451.464844 260.589844 C 451.910156 262.371094 452.3125 264.164062 452.671875 265.964844 C 453.03125 267.765625 453.34375 269.574219 453.613281 271.390625 C 453.882812 273.207031 454.109375 275.03125 454.289062 276.855469 C 454.46875 278.683594 454.605469 280.515625 454.695312 282.351562 C 454.785156 284.183594 454.832031 286.019531 454.832031 287.855469 C 454.832031 289.691406 454.789062 291.527344 454.699219 293.363281 C 454.609375 295.195312 454.472656 297.027344 454.292969 298.855469 C 454.113281 300.683594 453.890625 302.503906 453.621094 304.320312 C 453.351562 306.136719 453.039062 307.945312 452.679688 309.746094 C 452.324219 311.546875 451.921875 313.339844 451.476562 315.121094 C 451.027344 316.902344 450.539062 318.671875 450.007812 320.429688 C 449.472656 322.183594 448.898438 323.929688 448.28125 325.65625 C 447.660156 327.386719 447 329.097656 446.300781 330.796875 C 445.597656 332.492188 444.851562 334.167969 444.066406 335.828125 C 443.285156 337.488281 442.457031 339.128906 441.59375 340.75 C 440.726562 342.367188 439.824219 343.964844 438.878906 345.539062 C 437.933594 347.117188 436.953125 348.667969 435.933594 350.191406 C 434.914062 351.71875 433.855469 353.21875 432.761719 354.695312 C 431.667969 356.171875 430.539062 357.617188 429.375 359.035156 C 428.210938 360.457031 427.011719 361.847656 425.777344 363.207031 C 424.546875 364.566406 423.28125 365.894531 421.980469 367.195312 C 420.683594 368.492188 419.355469 369.757812 417.992188 370.992188 C 416.632812 372.226562 415.242188 373.425781 413.824219 374.589844 C 412.40625 375.753906 410.957031 376.882812 409.484375 377.976562 C 408.007812 379.070312 406.507812 380.125 404.980469 381.148438 C 403.453125 382.167969 401.902344 383.148438 400.328125 384.09375 C 398.753906 385.035156 397.15625 385.941406 395.535156 386.804688 C 393.917969 387.671875 392.277344 388.496094 390.617188 389.28125 C 388.957031 390.066406 387.28125 390.8125 385.582031 391.511719 C 383.886719 392.214844 382.175781 392.875 380.445312 393.496094 C 378.714844 394.113281 376.972656 394.6875 375.214844 395.222656 C 373.457031 395.753906 371.6875 396.242188 369.90625 396.6875 C 368.125 397.136719 366.335938 397.539062 364.535156 397.894531 C 362.734375 398.253906 360.925781 398.566406 359.109375 398.835938 C 357.292969 399.105469 355.46875 399.328125 353.640625 399.507812 C 351.816406 399.6875 349.984375 399.824219 348.148438 399.914062 C 346.316406 400.003906 344.480469 400.046875 342.644531 400.046875 C 340.808594 400.046875 338.972656 400.003906 337.136719 399.910156 C 335.304688 399.820312 333.472656 399.6875 331.644531 399.507812 C 329.816406 399.324219 327.996094 399.101562 326.179688 398.832031 C 324.363281 398.5625 322.554688 398.246094 320.753906 397.886719 C 318.953125 397.53125 317.160156 397.128906 315.378906 396.679688 C 313.597656 396.234375 311.828125 395.746094 310.070312 395.210938 C 308.3125 394.679688 306.570312 394.101562 304.839844 393.484375 C 303.113281 392.863281 301.398438 392.203125 299.703125 391.5 C 298.003906 390.796875 296.328125 390.050781 294.667969 389.265625 C 293.007812 388.480469 291.367188 387.65625 289.746094 386.789062 C 288.125 385.925781 286.527344 385.019531 284.953125 384.074219 C 283.378906 383.128906 281.828125 382.148438 280.300781 381.128906 C 278.773438 380.105469 277.273438 379.050781 275.796875 377.957031 C 274.320312 376.863281 272.875 375.730469 271.453125 374.566406 C 270.035156 373.402344 268.644531 372.203125 267.285156 370.96875 C 265.921875 369.734375 264.59375 368.46875 263.292969 367.171875 C 261.996094 365.871094 260.730469 364.542969 259.496094 363.179688 C 258.261719 361.820312 257.0625 360.429688 255.898438 359.011719 C 254.730469 357.589844 253.601562 356.144531 252.507812 354.667969 C 251.414062 353.191406 250.355469 351.691406 249.335938 350.164062 C 248.316406 348.636719 247.332031 347.085938 246.386719 345.511719 C 245.445312 343.933594 244.539062 342.339844 243.671875 340.71875 C 242.808594 339.097656 241.980469 337.457031 241.195312 335.796875 C 240.410156 334.136719 239.664062 332.460938 238.960938 330.761719 C 238.261719 329.066406 237.597656 327.351562 236.980469 325.625 C 236.359375 323.894531 235.785156 322.152344 235.25 320.394531 C 234.71875 318.636719 234.226562 316.867188 233.78125 315.085938 C 233.335938 313.304688 232.933594 311.511719 232.574219 309.710938 C 232.214844 307.910156 231.902344 306.101562 231.632812 304.285156 C 231.359375 302.46875 231.136719 300.648438 230.957031 298.820312 C 230.773438 296.992188 230.640625 295.160156 230.550781 293.328125 C 230.460938 291.492188 230.414062 289.65625 230.414062 287.820312 C 230.414062 285.984375 230.457031 284.148438 230.546875 282.316406 C 230.636719 280.480469 230.773438 278.648438 230.953125 276.824219 C 231.132812 274.996094 231.355469 273.171875 231.625 271.355469 C 231.894531 269.539062 232.207031 267.730469 232.566406 265.929688 C 232.921875 264.128906 233.324219 262.339844 233.769531 260.558594 C 234.214844 258.777344 234.707031 257.007812 235.238281 255.25 C 235.773438 253.492188 236.347656 251.75 236.964844 250.019531 C 237.582031 248.289062 238.242188 246.578125 238.945312 244.882812 C 239.648438 243.183594 240.394531 241.507812 241.175781 239.847656 C 241.960938 238.1875 242.789062 236.546875 243.652344 234.929688 C 244.519531 233.308594 245.421875 231.710938 246.367188 230.136719 C 247.308594 228.5625 248.292969 227.011719 249.3125 225.484375 C 250.332031 223.957031 251.390625 222.457031 252.484375 220.980469 C 253.578125 219.507812 254.707031 218.058594 255.871094 216.640625 C 257.035156 215.21875 258.234375 213.832031 259.464844 212.46875 C 260.699219 211.109375 261.964844 209.78125 263.265625 208.480469 C 264.5625 207.183594 265.890625 205.917969 267.25 204.683594 C 268.613281 203.453125 270.003906 202.253906 271.421875 201.089844 C 272.839844 199.921875 274.289062 198.792969 275.761719 197.699219 C 277.238281 196.605469 278.738281 195.550781 280.265625 194.53125 C 281.792969 193.511719 283.34375 192.527344 284.917969 191.585938 C 286.492188 190.640625 288.089844 189.734375 289.707031 188.871094 C 291.328125 188.003906 292.96875 187.179688 294.628906 186.394531 C 296.289062 185.609375 297.964844 184.867188 299.664062 184.164062 C 301.359375 183.460938 303.070312 182.800781 304.800781 182.183594 C 306.53125 181.5625 308.273438 180.988281 310.03125 180.457031 C 311.785156 179.921875 313.554688 179.433594 315.335938 178.988281 C 317.117188 178.542969 318.910156 178.140625 320.710938 177.78125 C 322.511719 177.421875 324.320312 177.109375 326.136719 176.839844 C 327.953125 176.570312 329.777344 176.347656 331.601562 176.167969 C 333.429688 175.988281 335.261719 175.851562 337.097656 175.761719 C 338.929688 175.671875 340.765625 175.628906 342.601562 175.628906 C 344.4375 175.628906 346.273438 175.675781 348.109375 175.765625 C 349.941406 175.855469 351.773438 175.992188 353.601562 176.171875 C 355.425781 176.351562 357.25 176.578125 359.066406 176.847656 C 360.882812 177.117188 362.691406 177.429688 364.492188 177.789062 C 366.292969 178.148438 368.085938 178.550781 369.867188 178.996094 C 371.648438 179.441406 373.417969 179.933594 375.175781 180.464844 C 376.933594 181 378.675781 181.574219 380.40625 182.195312 C 382.132812 182.8125 383.847656 183.472656 385.542969 184.175781 C 387.242188 184.878906 388.917969 185.625 390.578125 186.410156 C 392.238281 187.195312 393.878906 188.019531 395.5 188.886719 C 397.117188 189.753906 398.714844 190.65625 400.292969 191.601562 C 401.867188 192.546875 403.417969 193.527344 404.945312 194.550781 C 406.472656 195.570312 407.972656 196.628906 409.449219 197.722656 C 410.925781 198.816406 412.371094 199.945312 413.792969 201.109375 C 415.210938 202.277344 416.601562 203.476562 417.960938 204.707031 C 419.324219 205.941406 420.652344 207.207031 421.953125 208.507812 Z M 421.953125 208.507812 " fill-opacity="1" fill-rule="nonzero"/><path fill="#ffffff" d="M 342.625 145.140625 C 263.808594 145.140625 199.917969 209.03125 199.917969 287.847656 C 199.917969 366.667969 263.808594 430.554688 342.625 430.554688 C 421.445312 430.554688 485.332031 366.667969 485.332031 287.847656 C 485.332031 209.03125 421.40625 145.140625 342.625 145.140625 Z M 425.496094 370.71875 C 403.351562 392.863281 373.914062 405.054688 342.585938 405.054688 C 311.261719 405.054688 281.824219 392.863281 259.679688 370.71875 C 237.535156 348.574219 225.34375 319.136719 225.34375 287.808594 C 225.34375 256.484375 237.535156 227.046875 259.679688 204.902344 C 281.824219 182.757812 311.261719 170.566406 342.585938 170.566406 C 373.914062 170.566406 403.351562 182.757812 425.496094 204.902344 C 447.640625 227.046875 459.832031 256.484375 459.832031 287.808594 C 459.832031 319.136719 447.640625 348.574219 425.496094 370.71875 Z M 425.496094 370.71875 " fill-opacity="1" fill-rule="nonzero"/><g clip-path="url(#1a3d62481f)"><path fill="#ffffff" d="M 181.59375 141.902344 C 178.199219 141.902344 175.460938 144.640625 175.460938 147.996094 L 175.460938 217.171875 C 174.070312 220.757812 170.597656 223.074219 166.816406 222.957031 C 163.230469 222.839844 159.988281 220.566406 158.675781 217.171875 C 158.675781 194.101562 158.675781 171.027344 158.675781 147.996094 C 158.675781 144.640625 155.9375 141.902344 152.542969 141.902344 C 149.148438 141.902344 146.410156 144.640625 146.410156 147.996094 L 146.410156 217.171875 C 145.210938 220.835938 141.742188 223.265625 137.921875 223.148438 C 134.332031 223.035156 131.132812 220.644531 129.972656 217.171875 C 129.972656 194.101562 129.972656 171.027344 129.972656 147.996094 C 129.972656 144.640625 127.234375 141.902344 123.839844 141.902344 C 120.445312 141.902344 117.707031 144.640625 117.707031 147.996094 L 117.707031 217.171875 L 117.667969 217.171875 L 117.667969 237.308594 C 117.667969 245.949219 124.6875 252.933594 133.328125 252.933594 L 143.050781 252.933594 L 143.050781 450.039062 C 143.050781 455.671875 147.605469 460.222656 153.277344 460.222656 C 158.910156 460.222656 163.5 455.671875 163.5 450.039062 L 163.5 252.972656 L 172.027344 252.972656 C 180.667969 252.972656 187.6875 245.988281 187.6875 237.347656 L 187.6875 236.921875 C 187.6875 236.808594 187.6875 236.691406 187.6875 236.613281 L 187.6875 148.035156 C 187.726562 144.640625 184.988281 141.902344 181.59375 141.902344 Z M 181.59375 141.902344 " fill-opacity="1" fill-rule="nonzero"/></g><g clip-path="url(#3a4f5cfbeb)"><path fill="#ffffff" d="M 533.441406 141.667969 C 504.429688 141.4375 479.507812 178.476562 484.40625 210.652344 C 487.300781 229.824219 501.574219 252.277344 522.792969 257.910156 L 522.792969 450.695312 C 522.792969 456.328125 527.347656 460.917969 533.015625 460.917969 C 538.648438 460.917969 543.242188 456.367188 543.242188 450.695312 L 543.242188 257.871094 C 564.460938 252.238281 578.65625 229.746094 581.589844 210.652344 C 586.449219 178.707031 562.222656 141.902344 533.441406 141.667969 Z M 533.441406 141.667969 " fill-opacity="1" fill-rule="nonzero"/></g></svg>