<svg xmlns="http://www.w3.org/2000/svg" xmlns:xlink="http://www.w3.org/1999/xlink" width="1366" zoomAndPan="magnify" viewBox="0 0 1024.5 576" height="768" preserveAspectRatio="xMidYMid meet" version="1.0"><defs><filter x="0%" y="0%" width="100%" height="100%" id="091323d1f4"><feColorMatrix values="0 0 0 0 1 0 0 0 0 1 0 0 0 0 1 0 0 0 1 0" color-interpolation-filters="sRGB"/></filter><mask id="ddb9d1f076"><g filter="url(#091323d1f4)"><rect x="-102.45" width="1229.4" fill="#000000" y="-57.6" height="691.2" fill-opacity="0.353"/></g></mask><clipPath id="b91f63296a"><path d="M 1 0.0234375 L 230 0.0234375 L 230 217.839844 L 1 217.839844 Z M 1 0.0234375 " clip-rule="nonzero"/></clipPath><clipPath id="13351ec9c9"><rect x="0" width="231" y="0" height="218"/></clipPath><mask id="1b81755f0f"><g filter="url(#091323d1f4)"><rect x="-102.45" width="1229.4" fill="#000000" y="-57.6" height="691.2" fill-opacity="0.353"/></g></mask><clipPath id="9972d4510d"><path d="M 1 0.261719 L 208 0.261719 L 208 211.839844 L 1 211.839844 Z M 1 0.261719 " clip-rule="nonzero"/></clipPath><clipPath id="21dab77fd1"><rect x="0" width="209" y="0" height="212"/></clipPath><mask id="52aaaee804"><g filter="url(#091323d1f4)"><rect x="-102.45" width="1229.4" fill="#000000" y="-57.6" height="691.2" fill-opacity="0.353"/></g></mask><clipPath id="f6750175f9"><path d="M 1 0.21875 L 440 0.21875 L 440 290 L 1 290 Z M 1 0.21875 " clip-rule="nonzero"/></clipPath><clipPath id="513ca2b17c"><rect x="0" width="442" y="0" height="291"/></clipPath></defs><path fill="#ffd687" d="M 550.488281 422.769531 C 550.488281 422.769531 565.144531 416.296875 564.40625 423.636719 C 563.667969 430.976562 566.492188 430.175781 566.132812 435.007812 C 565.765625 439.839844 563.691406 439.980469 560.882812 447.320312 C 558.082031 454.660156 548.035156 476.015625 546.230469 483.953125 C 544.421875 491.890625 547.882812 499.011719 552.015625 507.265625 C 556.136719 515.523438 558.542969 514.515625 554.660156 516.84375 C 550.78125 519.171875 546.417969 522.734375 544.320312 533.050781 C 542.222656 543.363281 542.640625 547.15625 538.367188 539.753906 C 534.09375 532.351562 527.886719 508.296875 528.269531 501.148438 C 528.648438 494 533.191406 487.855469 539.117188 473.535156 C 545.058594 459.210938 551.761719 436.992188 552.230469 433.355469 C 552.703125 429.714844 550.488281 422.769531 550.488281 422.769531 Z M 501.914062 414.453125 C 501.914062 414.453125 525.304688 409.378906 522.570312 413.347656 C 519.847656 417.316406 515.855469 421.246094 515.753906 425.621094 C 515.652344 429.996094 513.984375 431.636719 511.480469 434.246094 C 508.972656 436.851562 507.308594 438.453125 495.527344 451.121094 C 483.738281 463.792969 482.085938 469.503906 481.753906 478.175781 C 481.421875 486.851562 491.253906 498.65625 488.253906 499.457031 C 485.25 500.246094 482.429688 499.761719 479.375 505.765625 C 476.335938 511.757812 478.089844 513.269531 471.183594 514.121094 C 464.277344 514.976562 462.917969 524.449219 462.292969 522.644531 C 461.667969 520.839844 461.375 513.246094 464.339844 494.609375 C 467.292969 475.964844 467.445312 473.585938 473.855469 463.054688 C 480.265625 452.523438 499.371094 429.335938 500.691406 426.804688 C 502.003906 424.285156 501.914062 414.453125 501.914062 414.453125 Z M 501.914062 414.453125 " fill-opacity="1" fill-rule="evenodd"/><path fill="#faf1eb" d="M 491.472656 289.890625 C 508.566406 286.734375 518.714844 278.480469 510.589844 262.46875 C 510.589844 262.46875 490.035156 260.230469 459.621094 217.871094 C 429.210938 175.515625 418.15625 151.742188 411.847656 138.273438 C 405.539062 124.816406 389.550781 124.382812 362.914062 108.167969 C 336.28125 91.960938 243.910156 38.921875 236.164062 30.933594 C 234.308594 29.027344 233.277344 29.269531 233.050781 31.0625 C 232.324219 36.773438 239.703125 58.140625 254.417969 75.578125 C 273.765625 98.511719 269.335938 95.550781 262.558594 93.769531 C 255.777344 91.976562 260.167969 100.40625 279.742188 117.859375 C 279.742188 117.859375 269.324219 113.457031 270.621094 117.019531 C 271.933594 120.582031 284.675781 137.371094 295.679688 144.40625 C 295.679688 144.40625 291.226562 146.425781 296.597656 154.046875 C 301.964844 161.664062 300.640625 162.835938 310.394531 174.613281 C 320.152344 186.390625 316.003906 183.007812 334.117188 194.609375 C 352.230469 206.207031 348.820312 203.730469 361.769531 223.964844 C 374.71875 244.214844 378.851562 257.289062 399.574219 274.765625 C 412.660156 285.792969 462.214844 295.296875 491.472656 289.890625 Z M 491.472656 289.890625 " fill-opacity="1" fill-rule="evenodd"/><g mask="url(#ddb9d1f076)"><g transform="matrix(1, 0, 0, 1, 284, 74)"><g clip-path="url(#13351ec9c9)"><g clip-path="url(#b91f63296a)"><path fill="#a0a3bb" d="M 46.773438 118.472656 C 47.804688 119.121094 48.910156 119.832031 50.132812 120.609375 C 68.242188 132.207031 64.835938 129.730469 77.785156 149.964844 C 90.730469 170.214844 94.867188 183.289062 115.585938 200.765625 C 128.660156 211.792969 178.230469 221.296875 207.472656 215.890625 C 224.566406 212.734375 234.714844 204.480469 226.589844 188.46875 C 226.589844 188.46875 206.035156 186.230469 175.621094 143.871094 C 145.210938 101.515625 134.15625 77.742188 127.847656 64.273438 C 121.539062 50.816406 105.550781 50.382812 78.914062 34.167969 C 69.820312 28.648438 53.042969 18.800781 34.601562 7.925781 C 22.859375 1.007812 4.558594 -3.902344 2.203125 8.296875 C -2.554688 33.046875 32.515625 109.390625 46.773438 118.472656 Z M 46.773438 118.472656 " fill-opacity="1" fill-rule="evenodd"/></g></g></g></g><g mask="url(#1b81755f0f)"><g transform="matrix(1, 0, 0, 1, 284, 80)"><g clip-path="url(#21dab77fd1)"><g clip-path="url(#9972d4510d)"><path fill="#a0a3bb" d="M 46.773438 112.472656 C 32.515625 103.402344 -2.554688 27.046875 2.203125 2.308594 C 2.304688 1.8125 2.421875 1.339844 2.558594 0.910156 C 19.007812 13.832031 39.511719 28.101562 65.039062 42.808594 C 105.28125 65.996094 104.277344 68.167969 123.699219 101.074219 C 138.226562 125.6875 152.765625 144.84375 155.539062 148.492188 C 182.78125 184.402344 200.691406 200.9375 207.472656 209.902344 C 178.230469 215.308594 128.660156 205.808594 115.585938 194.78125 C 94.867188 177.304688 90.730469 164.226562 77.785156 143.976562 C 64.835938 123.730469 68.257812 126.222656 50.132812 114.621094 C 48.910156 113.832031 47.804688 113.121094 46.773438 112.472656 Z M 46.773438 112.472656 " fill-opacity="1" fill-rule="evenodd"/></g></g></g></g><path fill="#716d89" d="M 318.601562 81.925781 C 283.050781 60.976562 241.265625 36.1875 236.164062 30.933594 C 234.308594 29.027344 233.277344 29.269531 233.050781 31.0625 C 232.324219 36.773438 239.703125 58.140625 254.417969 75.578125 C 273.765625 98.511719 269.335938 95.550781 262.558594 93.769531 C 255.777344 91.976562 260.167969 100.40625 279.742188 117.859375 C 279.742188 117.859375 269.324219 113.457031 270.621094 117.019531 C 271.933594 120.582031 284.675781 137.371094 295.679688 144.40625 C 295.679688 144.40625 291.226562 146.425781 296.597656 154.046875 C 301.964844 161.664062 300.640625 162.835938 310.394531 174.613281 C 319.503906 185.601562 316.5 183.402344 330.761719 192.472656 C 319.515625 176.484375 304.734375 155.800781 310.535156 151.4375 C 318.460938 145.484375 301.46875 132.230469 300.285156 123.417969 C 300.15625 122.449219 300.375 120.605469 312.457031 122.566406 C 325.34375 124.652344 298.820312 94.761719 297.625 85.742188 C 297.347656 83.566406 297.675781 77.640625 318.601562 81.925781 Z M 318.601562 81.925781 " fill-opacity="1" fill-rule="evenodd"/><path fill="#faf1eb" d="M 589.144531 448.921875 C 582.53125 436.738281 575.585938 424.742188 570.90625 420.570312 C 570.90625 420.570312 566.566406 426.167969 563.730469 427.972656 C 560.882812 429.78125 558.503906 430.632812 552.179688 426.550781 C 545.859375 422.464844 544.246094 421.726562 539.867188 419.808594 C 535.492188 417.886719 522.101562 417.136719 522.101562 417.136719 C 522.101562 417.136719 516.9375 421.207031 513.335938 421.652344 C 509.75 422.097656 507.292969 421.878906 503.035156 418.421875 C 498.773438 414.960938 498.363281 412.8125 493.136719 408.285156 C 489.5625 405.207031 461.898438 387.527344 443.125 363.574219 C 434.359375 352.40625 427.53125 339.867188 425.980469 326.816406 C 425.980469 326.816406 416.691406 327.058594 408.363281 323.175781 C 398.910156 318.789062 395.554688 318.253906 393.660156 318.675781 C 391.777344 319.09375 371.257812 293.71875 374.199219 282.527344 C 377.136719 271.332031 381.484375 252.164062 403.871094 239.675781 C 427.796875 226.320312 457.21875 238.1875 474.707031 253.320312 C 492.195312 268.472656 491.355469 266.804688 503.746094 261.117188 C 516.132812 255.445312 552.511719 228.9375 590.480469 195.21875 C 628.460938 161.5 632.261719 153.550781 673.5625 154.898438 C 697.3125 155.675781 725.140625 156.589844 752.234375 157.175781 C 772.28125 157.609375 791.90625 157.835938 809.167969 157.683594 C 833.585938 157.46875 831.398438 189.941406 805.351562 217.109375 C 788.089844 235.09375 750.273438 250.292969 739.105469 253.804688 C 730.75 256.4375 722.839844 258.535156 714.992188 260.738281 C 696.472656 265.914062 678.320312 271.625 655.667969 285.933594 C 623.398438 306.324219 585.277344 336.800781 584.859375 339.980469 C 584.4375 343.160156 606.785156 364.375 632.277344 397.664062 C 635.886719 402.382812 639.386719 406.808594 642.71875 410.941406 C 662.839844 435.960938 597.476562 464.261719 589.144531 448.921875 Z M 589.144531 448.921875 " fill-opacity="1" fill-rule="evenodd"/><g mask="url(#52aaaee804)"><g transform="matrix(1, 0, 0, 1, 424, 164)"><g clip-path="url(#513ca2b17c)"><g clip-path="url(#f6750175f9)"><path fill="#a0a3bb" d="M 19.125 199.585938 C 10.359375 188.417969 3.53125 175.878906 1.980469 162.828125 C 1.980469 162.828125 16.875 162.34375 30.039062 150.71875 C 42.425781 139.765625 7.90625 169.710938 19.125 199.585938 Z M 98.101562 253.148438 C 98.101562 253.148438 92.9375 257.21875 89.335938 257.664062 C 85.75 258.109375 83.292969 257.894531 79.035156 254.433594 C 74.773438 250.972656 74.367188 248.824219 69.136719 244.296875 C 84.566406 251.890625 98.101562 253.148438 98.101562 253.148438 Z M 165.144531 284.921875 C 158.53125 272.738281 151.585938 260.742188 146.90625 256.570312 C 146.90625 256.570312 157.421875 254.34375 170.117188 249.269531 C 182.824219 244.183594 190.085938 234.453125 194.617188 236.054688 C 197.375 237.035156 209.179688 247.71875 221.9375 261.113281 C 216.277344 281.070312 171.910156 297.375 165.144531 284.921875 Z M 401.828125 6.390625 C 413.417969 4.863281 425.917969 3.046875 439.429688 0.871094 C 436.351562 3.695312 433.246094 5.652344 433.246094 5.652344 C 433.246094 5.652344 446.421875 5.933594 435.929688 17.429688 C 425.4375 28.929688 406.816406 38.609375 406.816406 38.609375 C 406.816406 38.609375 423.3125 36.34375 415.566406 43.238281 C 407.820312 50.132812 394.402344 57.292969 394.402344 57.292969 C 394.402344 57.292969 408.53125 57.6875 390.675781 64.796875 C 372.816406 71.910156 343.152344 81.015625 315.121094 89.832031 C 306.761719 92.464844 298.851562 94.5625 291.003906 96.761719 C 272.484375 101.941406 254.332031 107.652344 231.679688 121.960938 C 199.410156 142.347656 161.289062 172.824219 160.871094 176.003906 C 153.660156 176.832031 132.035156 170.230469 115.652344 159.621094 C 91.601562 144.042969 99.179688 140.554688 127.023438 110.386719 C 201.179688 30.0625 214.726562 22.734375 224.175781 17.621094 C 256.0625 0.375 263.683594 24.566406 401.828125 6.390625 Z M 401.828125 6.390625 " fill-opacity="1" fill-rule="evenodd"/></g></g></g></g><path fill="#716d89" d="M 642.71875 410.96875 C 643.558594 416.410156 643.136719 421.371094 638.507812 419.414062 C 633.957031 417.480469 631.246094 415.34375 631.679688 420.203125 C 631.765625 421.246094 632.808594 432.945312 631.410156 433.277344 C 627.695312 434.140625 615.28125 417.847656 614.660156 424.5 C 613.503906 436.761719 615.589844 443.238281 610.246094 438.734375 C 607.574219 436.484375 607.675781 436.671875 604.917969 434.460938 C 603.226562 447.105469 601.824219 447.089844 600.898438 446.644531 C 598.914062 445.691406 593 437.410156 591.738281 438.898438 C 591.292969 439.421875 590.898438 446.136719 589.15625 448.949219 C 597.476562 464.273438 605.285156 479.894531 607.398438 480.570312 C 611.1875 481.789062 612.546875 477.273438 612.546875 477.273438 C 612.546875 477.273438 617.648438 480.097656 621.628906 479.371094 C 625.609375 478.648438 619.59375 472.339844 624.25 473.027344 C 628.90625 473.710938 636.195312 474.550781 641.957031 474.171875 C 647.71875 473.789062 642.679688 462.53125 642.679688 462.53125 C 642.679688 462.53125 649.84375 466.296875 654.902344 465.113281 C 659.953125 463.929688 656.773438 453.640625 656.773438 453.640625 C 656.773438 453.640625 664.292969 453.921875 669.746094 452.648438 C 670.625 452.445312 671.464844 452.191406 672.191406 451.898438 C 676.707031 450.054688 662.839844 435.960938 642.71875 410.96875 Z M 642.71875 410.96875 " fill-opacity="1" fill-rule="evenodd"/><path fill="#716d89" d="M 752.246094 157.1875 C 783.753906 165.644531 788.460938 166.066406 806.648438 174.640625 C 805.527344 175.070312 792.871094 179.957031 792.59375 180.097656 C 781.273438 185.832031 809.421875 192.90625 801.890625 197.609375 C 792.683594 203.371094 788.253906 203.640625 793.304688 213.128906 C 796.613281 219.359375 781.667969 220.378906 777.34375 225.667969 C 755.847656 251.933594 742.679688 235.3125 715.003906 260.75 C 722.851562 258.550781 730.777344 256.449219 739.121094 253.816406 C 767.167969 245.003906 796.816406 235.894531 814.675781 228.785156 C 832.53125 221.664062 818.402344 221.28125 818.402344 221.28125 C 818.402344 221.28125 831.820312 214.109375 839.566406 207.226562 C 847.3125 200.34375 830.816406 202.597656 830.816406 202.597656 C 830.816406 202.597656 849.4375 192.929688 859.929688 181.417969 C 870.421875 169.921875 857.246094 169.640625 857.246094 169.640625 C 857.246094 169.640625 860.351562 167.679688 863.429688 164.859375 C 865.550781 162.910156 867.664062 160.558594 868.746094 158.167969 C 871.402344 152.277344 849.765625 157.339844 809.179688 157.695312 C 791.917969 157.863281 772.292969 157.621094 752.246094 157.1875 Z M 752.246094 157.1875 " fill-opacity="1" fill-rule="evenodd"/><path fill="#f08589" d="M 376.90625 335.617188 C 376.90625 335.617188 370.40625 340.03125 364.644531 342.371094 C 360.726562 343.960938 368.359375 338.722656 381.472656 311.617188 C 391.230469 291.441406 407.304688 301.960938 407.304688 301.960938 L 402.839844 313.535156 Z M 376.90625 335.617188 " fill-opacity="1" fill-rule="evenodd"/><path fill="#ffd687" d="M 375.191406 281.660156 C 373.089844 281.789062 368.421875 289.675781 360.535156 297.699219 C 352.652344 305.738281 350.921875 312.148438 351.023438 324.933594 C 351.125 337.714844 350.488281 338.847656 353.03125 335.121094 C 355.574219 331.394531 357.28125 326.484375 368.601562 320.558594 C 379.921875 314.628906 404.0625 305.179688 404.0625 305.179688 C 404.0625 305.179688 386.066406 327.554688 376.917969 335.589844 C 376.917969 335.589844 397.664062 321.523438 402.21875 317.554688 C 406.773438 313.601562 411.289062 301.414062 411.464844 298.375 C 411.644531 295.320312 403.972656 291.351562 398.097656 286.496094 C 390.273438 280.058594 377.277344 281.546875 375.191406 281.660156 Z M 375.191406 281.660156 " fill-opacity="1" fill-rule="evenodd"/><path fill="#716d89" d="M 415.613281 270.710938 C 415.675781 266.691406 419.136719 263.929688 421.742188 263.941406 C 425.457031 263.957031 428.371094 266.792969 428.980469 270.0625 C 429.757812 274.234375 427.886719 278.0625 424.363281 279.21875 C 420.867188 280.375 416.578125 277.449219 415.957031 274.105469 C 415.929688 273.953125 415.90625 273.800781 415.890625 273.648438 C 418.308594 273.75 421.527344 272.578125 420.214844 271.257812 C 419.289062 270.339844 417.085938 270.351562 415.613281 270.710938 Z M 415.613281 270.710938 " fill-opacity="1" fill-rule="evenodd"/></svg>