<svg xmlns="http://www.w3.org/2000/svg" xmlns:xlink="http://www.w3.org/1999/xlink" viewBox="0 0 293.25 293.249989" preserveAspectRatio="xMidYMid meet" version="1.0"><defs><clipPath id="be9dc4f330"><path d="M 0 0 L 292.324219 0 L 292.324219 292.324219 L 0 292.324219 Z M 0 0 " clip-rule="nonzero"/></clipPath><clipPath id="018d8a2793"><path d="M 146.164062 0 C 65.4375 0 0 65.4375 0 146.164062 C 0 226.886719 65.4375 292.324219 146.164062 292.324219 C 226.886719 292.324219 292.324219 226.886719 292.324219 146.164062 C 292.324219 65.4375 226.886719 0 146.164062 0 Z M 146.164062 0 " clip-rule="nonzero"/></clipPath><clipPath id="7dbe485558"><path d="M 0 0 L 292.324219 0 L 292.324219 292.324219 L 0 292.324219 Z M 0 0 " clip-rule="nonzero"/></clipPath><clipPath id="42a1a4bf61"><path d="M 146.164062 0 C 65.4375 0 0 65.4375 0 146.164062 C 0 226.886719 65.4375 292.324219 146.164062 292.324219 C 226.886719 292.324219 292.324219 226.886719 292.324219 146.164062 C 292.324219 65.4375 226.886719 0 146.164062 0 Z M 146.164062 0 " clip-rule="nonzero"/></clipPath><clipPath id="c90a55f2bd"><rect x="0" width="293" y="0" height="293"/></clipPath><clipPath id="5bb449eaf3"><path d="M 68.796875 51.90625 L 223.652344 51.90625 L 223.652344 250.894531 L 68.796875 250.894531 Z M 68.796875 51.90625 " clip-rule="nonzero"/></clipPath></defs><g clip-path="url(#be9dc4f330)"><g clip-path="url(#018d8a2793)"><g transform="matrix(1, 0, 0, 1, 0, 0)"><g clip-path="url(#c90a55f2bd)"><g clip-path="url(#7dbe485558)"><g clip-path="url(#42a1a4bf61)"><path fill="#e8656f" d="M 0 0 L 292.324219 0 L 292.324219 292.324219 L 0 292.324219 Z M 0 0 " fill-opacity="1" fill-rule="nonzero"/></g></g></g></g></g></g><path fill="#111d35" d="M 158.804688 102.433594 C 153.621094 103.632812 149.335938 107.078125 146.230469 111.285156 C 146.042969 111.332031 144.363281 109.125 144.0625 108.800781 C 143.855469 108.578125 143.605469 108.429688 143.421875 108.25 C 129.699219 94.460938 108.851562 104.921875 109.851562 123.867188 C 110.324219 132.835938 116.097656 141.074219 122.746094 146.679688 C 130.300781 153.046875 138.320312 158.890625 145.882812 165.253906 L 146.222656 165.398438 L 169.9375 146.371094 C 177.84375 139.460938 184.03125 129.445312 182.171875 118.511719 C 180.332031 107.695312 169.738281 99.902344 158.808594 102.4375 Z M 158.804688 102.433594 " fill-opacity="1" fill-rule="nonzero"/><g clip-path="url(#5bb449eaf3)"><path fill="#111d35" d="M 139.0625 52.21875 C 98.828125 55.808594 66.503906 92.277344 68.964844 132.890625 C 70.878906 164.582031 102.402344 205.53125 123.035156 228.742188 C 126.085938 232.171875 142.015625 249.664062 144.71875 250.5 C 147.6875 251.414062 148.605469 250.117188 150.683594 248.476562 C 158.101562 242.605469 168.3125 230.28125 174.714844 222.792969 C 192.078125 202.476562 213.503906 173.953125 220.707031 148.058594 C 235.074219 96.40625 191.726562 47.519531 139.0625 52.21875 Z M 150.652344 184.53125 C 79.101562 190.03125 69.355469 81.570312 140.636719 74.304688 C 214.101562 66.820312 223.484375 178.929688 150.652344 184.53125 Z M 150.652344 184.53125 " fill-opacity="1" fill-rule="nonzero"/></g></svg>
