<svg xmlns="http://www.w3.org/2000/svg" viewBox="277.859375 83 149 424" preserveAspectRatio="xMidYMid meet"><defs><clipPath id="surfboard-clip"><path d="M 277.859375 83 L 426.855469 83 L 426.855469 507 L 277.859375 507 Z" clip-rule="nonzero"/></clipPath></defs><g clip-path="url(#surfboard-clip)"><path fill="#1b2d4c" d="M 427.148438 317.007812 C 427.148438 385.179688 406.21875 468.472656 395.296875 505.054688 C 394.964844 506.175781 393.878906 506.945312 392.625 506.945312 L 312.382812 506.945312 C 311.140625 506.945312 310.054688 506.175781 309.710938 505.054688 C 298.792969 468.460938 277.859375 385.179688 277.859375 317.007812 C 277.859375 223.835938 300.742188 148.863281 323.375 110.640625 C 324.78125 108.265625 326.199219 106.03125 327.59375 103.9375 C 331.058594 98.785156 334.484375 94.519531 337.769531 91.222656 C 343.136719 85.855469 348.160156 83.03125 352.511719 83.03125 C 356.859375 83.03125 361.882812 85.855469 367.25 91.210938 C 370.546875 94.519531 373.972656 98.773438 377.425781 103.9375 C 378.820312 106.03125 380.238281 108.265625 381.644531 110.640625 C 404.289062 148.863281 427.160156 223.835938 427.160156 317.007812 Z"/></g><path fill="#ffffff" d="M 367.238281 91.199219 L 367.238281 506.933594 L 337.769531 506.933594 L 337.769531 91.210938 C 343.136719 85.84375 348.160156 83.019531 352.511719 83.019531 C 356.859375 83.019531 361.882812 85.84375 367.25 91.199219 Z"/><path fill="#ffffff" d="M 327.59375 103.9375 L 327.59375 506.933594 L 323.375 506.933594 L 323.375 110.640625 C 324.78125 108.265625 326.199219 106.03125 327.59375 103.9375 Z"/><path fill="#ffffff" d="M 381.644531 110.640625 L 381.644531 506.933594 L 377.425781 506.933594 L 377.425781 103.9375 C 378.820312 106.03125 380.238281 108.265625 381.644531 110.640625 Z"/></svg>
