<svg width="512" height="512" viewBox="0 0 64 64" xmlns="http://www.w3.org/2000/svg">
  <g opacity="0.55">
    <path d="M 24 16 L 4 8 L 4 16 Z" fill="#e8656f"/>
    <path d="M 40 16 L 60 8 L 60 16 Z" fill="#e8656f"/>
  </g>
  <rect x="8" y="58" width="48" height="3" fill="#0b1120"/>
  <rect x="11" y="54" width="42" height="4" fill="#1e3a5f"/>
  <path d="M 17 54 L 20 24 L 22 24 L 20 54 Z" fill="#0b1120"/>
  <path d="M 20 54 L 22 24 L 42 24 L 44 54 Z" fill="#1e3a5f"/>
  <path d="M 44 54 L 42 24 L 44 24 L 47 54 Z" fill="#0b1120"/>
  <circle cx="32" cy="34" r="1.8" fill="#f5f0e8"/>
  <circle cx="32" cy="44" r="1.8" fill="#f5f0e8"/>
  <rect x="15" y="20" width="34" height="4" fill="#0b1120"/>
  <rect x="17" y="22" width="30" height="2" fill="#1e3a5f"/>
  <rect x="23" y="12" width="18" height="8" fill="#0b1120"/>
  <rect x="26" y="14" width="12" height="4" fill="#e8656f"/>
  <path d="M 21 12 Q 32 3 43 12 Z" fill="#0b1120"/>
  <rect x="31" y="2" width="2" height="3" fill="#1e3a5f"/>
  <circle cx="32" cy="2" r="1.5" fill="#e8656f"/>
</svg>
