<svg width="512" height="512" viewBox="0 0 128 128" xmlns="http://www.w3.org/2000/svg">
  <defs>
    <path id="seal-arc-top" d="M 22 64 A 42 42 0 0 1 106 64" fill="none"/>
    <path id="seal-arc-bottom" d="M 26 72 A 38 38 0 0 0 102 72" fill="none"/>
  </defs>
  <circle cx="64" cy="64" r="60" fill="#f5f0e8" stroke="#0b1120" stroke-width="2"/>
  <circle cx="64" cy="64" r="52" fill="none" stroke="#0b1120" stroke-width="0.75"/>
  <circle cx="64" cy="64" r="38" fill="none" stroke="#0b1120" stroke-width="0.75"/>
  <g stroke="#0b1120" stroke-width="1.5" stroke-linecap="round">
    <line x1="64" y1="4" x2="64" y2="9"/>
    <line x1="64" y1="119" x2="64" y2="124"/>
    <line x1="4" y1="64" x2="9" y2="64"/>
    <line x1="119" y1="64" x2="124" y2="64"/>
  </g>
  <g stroke="#0b1120" stroke-width="0.75" stroke-linecap="round" opacity="0.6">
    <line x1="21.5" y1="21.5" x2="25" y2="25"/>
    <line x1="103" y1="21.5" x2="106.5" y2="25"/>
    <line x1="21.5" y1="106.5" x2="25" y2="103"/>
    <line x1="103" y1="103" x2="106.5" y2="106.5"/>
  </g>
  <text font-family="Georgia, 'Times New Roman', serif" font-size="11" font-weight="700" fill="#0b1120" letter-spacing="3">
    <textPath href="#seal-arc-top" startOffset="50%" text-anchor="middle">PORT A LOCAL</textPath>
  </text>
  <text font-family="Georgia, 'Times New Roman', serif" font-size="7" font-weight="500" fill="#0b1120" letter-spacing="4">
    <textPath href="#seal-arc-bottom" startOffset="50%" text-anchor="middle">PORT ARANSAS · TEXAS</textPath>
  </text>
  <g transform="translate(50, 42)">
    <rect x="0" y="36" width="28" height="2.5" fill="#0b1120"/>
    <rect x="2" y="33" width="24" height="3" fill="#0b1120" opacity="0.8"/>
    <path d="M 5 33 L 7 14 L 21 14 L 23 33 Z" fill="#0b1120"/>
    <rect x="13" y="22" width="2" height="4" fill="#f5f0e8"/>
    <rect x="4" y="12" width="20" height="2.5" fill="#0b1120"/>
    <rect x="10" y="5" width="8" height="7" fill="#0b1120"/>
    <rect x="11" y="7" width="6" height="3" fill="#e8656f"/>
    <path d="M 8 5 Q 14 -1 20 5 Z" fill="#0b1120"/>
    <rect x="13.5" y="-3" width="1" height="2" fill="#0b1120"/>
  </g>
  <line x1="48" y1="92" x2="80" y2="92" stroke="#e8656f" stroke-width="1.5"/>
  <text x="64" y="102" text-anchor="middle" font-family="Georgia, 'Times New Roman', serif" font-size="6.5" font-weight="700" fill="#0b1120" letter-spacing="3">EST. 2026</text>
</svg>
