<svg width="512" height="512" viewBox="0 0 128 128" xmlns="http://www.w3.org/2000/svg">
  <defs>
    <path id="fusion-arc-top" d="M 22 64 A 42 42 0 0 1 106 64" fill="none"/>
    <path id="fusion-arc-bottom" d="M 26 74 A 38 38 0 0 0 102 74" fill="none"/>
  </defs>
  <circle cx="64" cy="64" r="60" fill="#f5f0e8" stroke="#0b1120" stroke-width="2.5"/>
  <circle cx="64" cy="64" r="48" fill="none" stroke="#0b1120" stroke-width="0.75"/>
  <g stroke="#e8656f" stroke-width="2" stroke-linecap="round">
    <line x1="64" y1="14" x2="64" y2="18"/>
    <line x1="64" y1="110" x2="64" y2="114"/>
    <line x1="14" y1="64" x2="18" y2="64"/>
    <line x1="110" y1="64" x2="114" y2="64"/>
  </g>
  <g stroke="#0b1120" stroke-linecap="round">
    <line x1="64" y1="7" x2="64" y2="4" stroke-width="1.5"/>
    <line x1="92.5" y1="14.64" x2="94" y2="12.04" stroke-width="0.75" opacity="0.6"/>
    <line x1="113.36" y1="35.5" x2="115.96" y2="34" stroke-width="0.75" opacity="0.6"/>
    <line x1="121" y1="64" x2="124" y2="64" stroke-width="1.5"/>
    <line x1="113.36" y1="92.5" x2="115.96" y2="94" stroke-width="0.75" opacity="0.6"/>
    <line x1="92.5" y1="113.36" x2="94" y2="115.96" stroke-width="0.75" opacity="0.6"/>
    <line x1="64" y1="121" x2="64" y2="124" stroke-width="1.5"/>
    <line x1="35.5" y1="113.36" x2="34" y2="115.96" stroke-width="0.75" opacity="0.6"/>
    <line x1="14.64" y1="92.5" x2="12.04" y2="94" stroke-width="0.75" opacity="0.6"/>
    <line x1="7" y1="64" x2="4" y2="64" stroke-width="1.5"/>
    <line x1="14.64" y1="35.5" x2="12.04" y2="34" stroke-width="0.75" opacity="0.6"/>
    <line x1="35.5" y1="14.64" x2="34" y2="12.04" stroke-width="0.75" opacity="0.6"/>
  </g>
  <text font-family="Georgia, 'Times New Roman', serif" font-size="12" font-weight="800" fill="#0b1120" letter-spacing="4">
    <textPath href="#fusion-arc-top" startOffset="50%" text-anchor="middle">PORT A LOCAL</textPath>
  </text>
  <text font-family="Georgia, 'Times New Roman', serif" font-size="7" font-weight="700" fill="#0b1120" letter-spacing="3">
    <textPath href="#fusion-arc-bottom" startOffset="50%" text-anchor="middle">27°50′N · 97°03′W</textPath>
  </text>
  <g opacity="0.65">
    <path d="M 56 44 L 28 34 L 28 40 Z" fill="#e8656f"/>
    <path d="M 72 44 L 100 34 L 100 40 Z" fill="#e8656f"/>
  </g>
  <rect x="48" y="82" width="32" height="2.5" fill="#0b1120"/>
  <rect x="50" y="79" width="28" height="3" fill="#d4c9b8"/>
  <path d="M 54 79 L 56 56 L 58 56 L 56.5 79 Z" fill="#0b1120"/>
  <path d="M 56.5 79 L 58 56 L 70 56 L 71.5 79 Z" fill="#d4c9b8"/>
  <path d="M 71.5 79 L 70 56 L 72 56 L 74 79 Z" fill="#0b1120"/>
  <circle cx="64" cy="62" r="1.2" fill="#f5f0e8"/>
  <circle cx="64" cy="70" r="1.2" fill="#f5f0e8"/>
  <rect x="52" y="53" width="24" height="3" fill="#0b1120"/>
  <rect x="54" y="54.5" width="20" height="1.5" fill="#d4c9b8"/>
  <rect x="58" y="47" width="12" height="6" fill="#0b1120"/>
  <rect x="60" y="48.5" width="8" height="3" fill="#e8656f"/>
  <path d="M 56 47 Q 64 40 72 47 Z" fill="#0b1120"/>
  <rect x="63" y="37" width="2" height="3" fill="#d4c9b8"/>
  <circle cx="64" cy="37" r="1.2" fill="#e8656f"/>
  <text x="64" y="100" text-anchor="middle" font-family="Georgia, 'Times New Roman', serif" font-size="6" font-weight="700" fill="#0b1120" letter-spacing="4">EST. 2026</text>
</svg>
