<?xml version="1.0" encoding="UTF-8"?>
<svg id="Layer_1" data-name="Layer 1" xmlns="http://www.w3.org/2000/svg" xmlns:xlink="http://www.w3.org/1999/xlink" viewBox="0 0 128 128">
  <defs>
    <style>
      .cls-1 {
        fill: none;
      }

      .cls-2 {
        clip-path: url(#clippath-1);
      }

      .cls-3 {
        clip-path: url(#clippath-2);
      }

      .cls-4 {
        fill: #1b2d4c;
        fill-rule: evenodd;
      }

      .cls-5 {
        clip-path: url(#clippath);
      }
    </style>
    <clipPath id="clippath">
      <rect class="cls-1" x="15.41" y="25.33" width="97.18" height="68.94"/>
    </clipPath>
    <clipPath id="clippath-1">
      <rect class="cls-1" x="23.53" y="82.7" width="19.77" height="19.97"/>
    </clipPath>
    <clipPath id="clippath-2">
      <rect class="cls-1" x="91.47" y="82.7" width="19.98" height="19.97"/>
    </clipPath>
  </defs>
  <g class="cls-5">
    <path class="cls-4" d="M51.57,68.39c1.36.02,7.12-.14,7.92.14,1.68.58,2.35,2.93,2.96,4.91h-10.04s-.84-5.06-.84-5.06ZM44.56,34.71h37.98s9.79,29.33,9.79,29.33c-3.55-.19-4.19-.7-4.54,3.11-.68-.32-.87-.68-1.4-1.08l-8.67-7.6c.29-.44.69-.92,1.02-1.39.49-.7,1.81-2.25,1.9-2.76.18-.99-1.06-2.35-2.38-.54l-2.98,3.94c-.64.89-1.31,1.74-2,2.66-.43.57-1.81,2-1.58,2.98.13.56.71,1.02,1.42.81.6-.18,2.68-3.09,3.03-3.72.71.3,2.1,1.77,2.79,2.32,1.82,1.47,3.75,3.34,5.47,4.7l2.03,1.79c.32.24.27.16.61.52.02.59-3.07,15.61-3.39,16.41-4,.15-10.03.03-14.45.03v-4.15c0-5.61.84-8.43-4.19-8.63-1.52-4.12-1.99-7.39-7.21-7.4h-3.81c-3.48,0-2.85.28-3.1-1.2l-1.14-6.35c-.8-4.57-1.47-4.32-5.2-4.64v-17.97s0-1.16,0-1.16ZM42.18,34.7v25.02c-8.09-.03-16.15,0-24.2,0-3.06,0-2.53.51-2.53,3.42v9.04c0,1.03-.03,1.91.99,2.11,1.25.24,4.55-.03,6.08.04-1.63,1.06-2.41,1.19-3.35,3-.95,1.84-.63,3.33-1.13,5.2-2.52,1.24-2.59-1.05-2.6,5.76,0,.63,0,1.23.29,1.67.24.38.76.78,1.26.88.88.17,3.2.05,4.23.05.3-.11.65-2.23,1.37-3.64,4.57-9.01,17.71-8.96,21.94.46,2.42,5.39-.67,6.34,3.67,6.32,4.87-.02,39.73.16,40.4-.11,1.07-.43.51-1.79,1.07-4.02.9-3.62,3.39-6.78,6.97-8.28,3.52-1.48,9.53-1.08,14-1.06,2.25.01,2.13-.95,1.76-2.95-2.01-10.91-17.14-13.14-17.25-13.2-.34-.21-.56-1.24-.73-1.73-.22-.65-.41-1.25-.63-1.91l-7.45-22.22c-.39-1.17-.99-2.68-1.25-3.83,3.81-.28,7.36.7,7.67-1.03.29-1.64-1.14-4.07-3.84-4.78-12.68-3.33-24.61-3.48-37.62-3.48-2.74,0-9.18-.31-11.43.27-2.89.75-5.11,2.97-5.86,5.86-.69,2.65-.39,3.14,2.17,3.13,1.99-.01,3.99,0,5.98,0Z"/>
  </g>
  <g class="cls-2">
    <path class="cls-4" d="M32.32,82.96c-5.04.52-9.33,5.16-8.65,10.94.59,4.98,5.16,9.24,10.94,8.6,5.02-.55,9.29-5.14,8.61-10.95-.59-5.08-5.07-9.2-10.9-8.59Z"/>
  </g>
  <g class="cls-3">
    <path class="cls-4" d="M100.23,83.01c-5.02.71-9.3,5.21-8.45,11.16.69,4.89,5.35,9.11,11.16,8.3,4.93-.69,9.11-5.31,8.33-11.11-.67-4.98-5.22-9.18-11.03-8.35Z"/>
  </g>
</svg>