<?xml version="1.0" encoding="UTF-8"?>
<svg id="Layer_1" data-name="Layer 1" xmlns="http://www.w3.org/2000/svg" viewBox="0 0 128 128">
  <defs>
    <style>
      .cls-1 {
        fill: #f18388;
      }
    </style>
  </defs>
  <path class="cls-1" d="M111.9,83.69c-4.29-1.33-8.27-3.28-10.65-6.22-.95-.82-1.81-1.71-2.55-2.67-2.47-1.68-5.15-2.37-8.13-2.33-.83.48-1.65,1-2.46,1.55l-4.52,3.08c-2.81,1.92-5.82,3.02-9.17,3.23l-2.93.02c-6.36-.68-13.78-3.23-18.57-7.5-8.52-7.61-6.74-19.82,1.24-27.12,2.54-2.33,7.35-4.96,10.49-4.97h3.68c2.03.15,3.87.83,5.67,1.57-.46.27-.87-.06-1.27-.06l-4.65.04c-1.64.01-3.14.45-4.71.91-2.83.84-5.39,2.18-7.57,4.15-3.56,3.23-5.82,7.56-6.07,12.37-.2,3.81.97,7.31,3.53,10.12,1.9,2.09,4.21,3.73,6.83,4.87,6.05,2.65,14.1,4.94,20.16,1.44-1.84-.73-3.53-1.08-5.17-1.87-2.38-1.14-4.54-2.56-6.24-4.56-4.27-5.01-4.7-12.29-.39-17.08,2.19-2.44,4.78-4.01,8.11-4.24,4.87-.54,9.71,1.78,13.37,5.28.14-3.97-1.56-7.68-4.21-10.69-2.97-3.38-6.81-5.69-11.12-7.01-2.11-.65-4.18-1.1-6.39-1.25l-1.74-.12h-4.8c-5.26.43-10.24,1.79-15,4.05-4.22,2.01-7.97,4.53-11.3,7.77l-1.91,1.86c-.48.47-.88.96-1.34,1.48-2.27,2.51-4.04,5.31-5.93,8.13l-2.52,3.76c-1.73,2.58-3.52,5.04-5.63,7.33-.76.96-1.57,1.74-2.47,2.56-1.75,1.58-3.49,3.08-5.56,4.21l.03,12.09.16,1.27,1.23-.82c9.01-6.88,20.32-12.55,31.83-11.93,3.43.19,6.65.81,9.9,1.85,3.26,1.03,6.23,2.45,9.39,3.73l8.14,3.28c4.36,1.54,8.75,2.49,13.39,2.85l9.44.08,1.73-.16c.51.09,2.92-.15,4.39-.26l2.03-.15,1.87-.16,2.35-.15h3.6s2.03.16,2.03.16l2.2.14c1.39.09,2.66.16,4.06-.01.07,0,.13-.02.2-.03.09-.49.17-.97.2-1.43-2.11-.82-4.2-1.58-6.28-2.45Z"/>
  <path class="cls-1" d="M73.16,93.16l-1.22-.12c-4.16-.39-8.16-1.14-12.21-2.13l-6.56-1.61c-3.92-.96-7.81-1.66-11.85-1.88l-1.91-.1c-1-.05-2.08-.05-3.08,0l-1.92.1c-5.66.29-11.12,1.47-16.54,3.14l-8.04,2.31c7.06-6.63,18.07-12.76,27.56-13.86l1.27-.15,5.89.04c5.72.5,10.93,2.5,16.13,4.81,8.58,3.81,15.21,6.42,24.8,6.93l6.84.05c.96,0,1.91-.36,2.84-.03-4.22,1.38-8.41,2.12-12.73,2.5l-2.74.1c-1.08.04-2.14.17-3.22,0l-3.28-.1Z"/>
</svg>