<?xml version="1.0" encoding="UTF-8"?>
<svg id="Layer_1" data-name="Layer 1" xmlns="http://www.w3.org/2000/svg" viewBox="0 0 128 128">
  <defs>
    <style>
      .cls-1 {
        fill: #f18388;
      }
    </style>
  </defs>
  <path class="cls-1" d="M108.49,100.98c-1.44,0-2.41-.84-2.41-2.2v-44.68c-5.03-1.42-8.24-6.28-9.02-11.32l-.12-1.63.17-1.96c.58-4,2.49-7.57,5.62-10.07,1.92-1.53,4.18-2.3,6.65-2.06,2.62.26,4.75,1.71,6.51,3.63,2.18,2.39,3.51,5.41,3.92,8.65l.05,3.27c-.7,4.98-4.11,10.15-9.03,11.43l-.02,45.04c0,1.21-1.27,1.88-2.33,1.88Z"/>
  <path class="cls-1" d="M24.37,49.9c-.31,1.73-1.54,2.76-3.18,3l-2.4.06-.02,45.98c0,1.3-1.36,1.89-2.46,1.88-1.16-.02-2.4-.87-2.4-2.29l-.04-45.56-2.62-.07c-1.27-.03-3.04-1.23-3.04-2.78l-.06-22.05c0-.7,1.05-1.02,1.53-1.01.63.02,1.39.57,1.39,1.32l.07,16.17c0,.75,1.14,1.29,1.69,1.31.64.03,1.81-.47,1.82-1.3l.08-16.32c0-.85,1.06-1.26,1.67-1.21.76.06,1.35.68,1.35,1.6l.12,16.05c0,.8,1.26,1.13,1.81,1.08s1.68-.38,1.68-1.21l.03-15.68c0-.84.3-1.45,1.02-1.75.52-.22,1.89-.05,1.9.83l.07,21.95Z"/>
  <g>
    <path class="cls-1" d="M95.03,64c0,18.29-14.83,33.11-33.13,33.11s-33.13-14.82-33.13-33.11,14.83-33.11,33.13-33.11,33.13,14.82,33.13,33.11ZM88.92,63.99c0-14.92-12.1-27.01-27.03-27.01s-27.03,12.09-27.03,27.01,12.1,27.01,27.03,27.01,27.03-12.09,27.03-27.01Z"/>
    <ellipse class="cls-1" cx="61.9" cy="64" rx="24.24" ry="24.23"/>
  </g>
</svg>