<?xml version="1.0" encoding="UTF-8"?>
<svg id="Layer_1" data-name="Layer 1" xmlns="http://www.w3.org/2000/svg" viewBox="0 0 128 128">
  <defs>
    <style>
      .cls-1 {
        fill: #f18388;
      }
    </style>
  </defs>
  <g>
    <path class="cls-1" d="M79.31,86.39c.88-.32,1.39-.93,1.67-1.78.56-1.72.92-3.47,1.14-5.27-1.64,2.74-.9,5.28-4.17,6.19l-2.5.69.32-1.99c.3-1.91,1.58-3.53,3.47-4.23.32-1.93.74-3.74,1.57-5.69,1.39,2.64,3.51,4.6,6.46,5.16,2.51.48,5.22-.45,6.83-2.4-1.72.49-3.01,1.37-4.62,1.24-3.81.46-6.81-2.16-8.01-5.7,1.31-2.62,2.77-5.14,4.75-7.3l1.39-1.51.13,2.66,2.02-2.46c5.59,3.78,8.94,9.22,9.62,15.81v4.53c-.32,3.74-1.5,7.15-3.24,10.43l-2.1,3.97c-1.19,2.25-1.95,4.53-2.4,7.03-.2,1.14-1.42,1.63-2.41,1.6s-1.98-.69-2.24-1.8c-.77-3.28-.68-4.11-3.65-6.13-.98-.67-2.07-.93-3.29-.8-.02-2.06.25-4.01,1.11-5.85-.9-2.1-1.44-4.16-1.81-6.39ZM90.18,72.5c.53.92,1.44,1.11,2.27.7.6-.3.96-1.35.66-1.96-.37-.75-1.14-1.11-2.05-.88-.84.21-1.33,1.34-.87,2.14ZM94.99,85.92c-.18,3.17-1.31,5.92-2.11,8.85,3.37-4.67,4.22-10.45,3.01-15.9l-1.26.39c.41.87.23,1.88.41,2.78.26,1.31.04,2.44-.04,3.88Z"/>
    <path class="cls-1" d="M98.31,117.18c-2.28-2.15-6.48-2.35-8.71-4.32-2.47,2.09-5.52,1.98-8.45,4.33l-1.64,1.57.02-2.68c.4-2.5,1.65-4.63,3.12-6.63l2.95-4.02c.42,1.34,1.08,2.34,2.08,2.81,1.28.6,2.77.54,3.76-.28.82-.68,1.28-1.37,1.62-2.49l3.7,4.55c1.81,2.23,3.58,5.85,3.11,8.64l-1.56-1.47Z"/>
    <path class="cls-1" d="M99.08,95.32c-.77,1.35-1.77,2.41-3.28,2.81l2.09-4.08c1.53-2.98,2.39-6.14,2.75-9.5l.15-4.4c2.44,2.92,5.11,5.95,2.65,8.78-1.71,1.97-3.04,4.07-4.36,6.39Z"/>
  </g>
  <g>
    <g>
      <path class="cls-1" d="M43.67,80.35c1.44,1.9,1.86,5.4,1.17,5.62-.48.16-2.23-1.05-3.78-1.39l-.82-1.55c-.39-.74-1.48-1.13-2.32-1.06-1.18.1-2,1.01-2.3,1.94-.35,1.1.14,2.21.98,2.86.94.73,2.11.7,3.2.07l4.1,1.66c-1.08,1.76-2.93,2.86-4.98,3.03-2.47.2-4.65-.65-6.22-2.58-2.03-2.49-1.95-6.21.07-8.68,2.6-3.04,7.03-3.29,9.99-.85.93-3.89,1.87-7.61,2.19-11.57.09-1.14.36-2.23.09-3.35-.33-.43-1.24-.63-1.85-.56l-3.32,10.37-2.77-.62c.04-1.6.64-2.9,1.16-4.38,2.28-6.51,4.54-12.91,7.55-19.12l2.45-5.05c2.72-5.62,5.88-10.84,9.4-16.02s7.56-10.24,11.93-14.93l4.44-4.48c.37-.37,1.18-.67,1.56-.27.41.42.17,1.18-.26,1.56,1.52,1.23,3.01,2.28,3.43,4.05l8.35,35.58c-.29.21-.72.36-1.19.25l-8.45-35.81c-.25-1.06-1.24-1.7-1.86-2.45-1.22,2.22-2.5,4.11-4.23,5.84l-3.63,3.64c-.48.48-.98.76-1.23,1.48-.63,1.84-1.48,3.56-2.68,5.13l-2.93,3.81c-.84,1.09-1.79,1.88-2.07,3.31-.35,1.83-1.6,4.07-2.48,5.86-1.07,2.17-2.41,4.03-3.81,5.99l-.93,4.04c-1.06,3.46-2.3,6.73-3.94,9.94-.45.88-1.38,1.66-1.41,2.64l-.12,3.67c-.46,4.2-1.28,8.22-2.48,12.37ZM66.69,21.59c3.11-2.86,5.69-6.09,8.1-9.63-.98-.11-1.26.85-1.76,1.35-.72.72-1.31,1.41-1.97,2.14l-1.11,1.22c-1.3,1.44-2.63,2.83-3.67,4.53-.12.2.21.52.41.38ZM58.85,33.07c2.76-3.1,5-6.37,6.87-9.95.11-.22.04-.37-.01-.49-.05-.09-.32-.29-.42-.15l-2.75,3.68c-1.58,2.11-3.08,4.18-4.35,6.49-.09.16.45.67.66.43ZM52.03,46.55c1.64-2.31,2.79-4.68,4.02-7.13.83-1.65,1.71-3.27,2.25-5.05.01-.25-.75-.51-.94-.24-2.02,2.88-3.6,5.9-5.24,8.99-.52.97-1.17,1.96-1.41,3.03-.05.36,1.05.78,1.33.39ZM45.5,63.19c2.78-4.8,4.58-10.04,5.88-15.21l-1.22-.59c-.27.27-.45.53-.61.88-1.82,4.01-3.54,7.98-5.12,12.1-.3.79-.56,1.46-.72,2.26l1.79.56Z"/>
      <path class="cls-1" d="M89.67,61.18c-1.02-.29-2.01-1.72-1.79-2.48.08-.26.4-.37.77-.31.75.12.5,1.62,1.8,1.63.6,0,1.12-.46,1.28-1.19.18-.82-.52-1.56-1.21-2.01l-4.74-3.1c-.6-.39-.19-1.63.29-1.96.64-.45,1.52-.44,2.15.13.55.5.7,1.34.13,2.1l3.12,2.06c.81.53,1.4,1.31,1.49,2.21s-.26,2.07-1.08,2.52c-.72.39-1.42.64-2.21.41Z"/>
      <path class="cls-1" d="M37.09,77.05l-1.79.44.68-2.6c.07-.26.28-.48.43-.57.35-.2,2.79.59,3.38,1.04.41.31.19,1.39-.16,1.79-.94-.26-1.68-.32-2.55-.1Z"/>
    </g>
    <g>
      <path class="cls-1" d="M29.75,116.41c-.89,1.66-2.72,1.97-4.25,1.33-1.78-.75-2.28-2.36-1.67-4.07,1.21-3.41,1.78-6.86,2.64-10.38s1.5-6.99,2.85-10.35c.32-.8,1.81-.58,2.43-.38,1.17.38,2.39.41,3.37,1.14.31.23.31,1.12.2,1.56l-5.57,21.15Z"/>
      <path class="cls-1" d="M46.57,90.71c-.72-.6-1.03-1.38-.87-2.31l-6.22-2.32c-.36-.13-.27-.68-.07-.91.26-.31.53-.28.95-.12l5.66,2.16c.68-1.07,1.81-1.56,2.97-1.28s2.03,1.26,2.17,2.6c.11,1.06-.67,2.03-1.48,2.46-1.01.53-2.22.45-3.1-.29Z"/>
      <path class="cls-1" d="M31.93,89.23c1.27,1.69,3,1.96,2.63,2.83-.13.32-.42.44-.82.35l-2.56-.61c.14-1.01.3-1.72.74-2.56Z"/>
    </g>
  </g>
</svg>