<?xml version="1.0" encoding="UTF-8"?>
<svg id="Layer_1" data-name="Layer 1" xmlns="http://www.w3.org/2000/svg" viewBox="0 0 128 128">
  <defs>
    <style>
      .cls-1 {
        fill: #1b2d4c;
      }
    </style>
  </defs>
  <path class="cls-1" d="M31.32,107.55c-5.72.34-12.18-6.08-11.97-11.79l18.41-18.4c3.36-.21,7.07-2.14,9.17-4.72,1.25-1.5,1.91-3.31,1.88-5.27l2.32-2.34,4.53,2.8,32.2-32.18,1.21-4.62,11.2-7.82,3.48,3.47-7.88,11.27-4.41,1.12-32.3,32.28,2.74,4.44-2.31,2.35c-5.69-.14-9.6,5.9-10.07,11.23l-18.19,18.18Z"/>
  <path class="cls-1" d="M99.81,105.39l-3.15-.05c-4.38-.06-10.1-1.17-13.54-4.03-1.42-1.18-2.39-2.74-3.03-4.48-1.52-4.11-.78-7.46-1.31-8.9-.63-1.72-1.76-3.08-2.91-4.43l-2.08-2.44-1.6-1.76-3.7-3.83-5.17-5.28,9-9.02,3.54,3.44,4.51,4.35c1.78,1.72,6.75,6.07,8.4,6.12,2.59.07,5.07.25,7.56.99,6.29,1.86,10.12,6.47,12.19,12.57.31.61-.03,1.31-.52,1.74l-11.66-6.68c-4.66,2.46-7.27,7.21-7.15,12.61l11.69,6.7-1.08,2.38Z"/>
  <path class="cls-1" d="M52.83,59.81l-3.22-3.07c-1.92-1.83-6.67-5.99-8.7-5.98-10.01.04-16.32-4.64-19.44-14.03l.66-1.24,11.75,6.73c4.29-2.5,6.61-6.05,7.08-11.01.05-.57.25-1.09.06-1.64l-11.74-6.69,1.14-2.37c1.07-.18,2.07.05,3.12.1,5.84.26,12.74,1.38,15.77,6.7,1.34,2.35,1.7,4.96,1.92,7.63.07.83-.07,1.77.12,2.58.39,1.68,1.52,3.07,2.62,4.35l3.48,4.05,1.52,1.66,4.02,4.16,2.82,2.93-8.99,9.03-3.99-3.88Z"/>
</svg>